%TF.GenerationSoftware,KiCad,Pcbnew,(5.1.6)-1*%
%TF.CreationDate,2020-07-01T11:52:29+01:00*%
%TF.ProjectId,QO100_Control_V2,514f3130-305f-4436-9f6e-74726f6c5f56,rev?*%
%TF.SameCoordinates,Original*%
%TF.FileFunction,Soldermask,Top*%
%TF.FilePolarity,Negative*%
%FSLAX46Y46*%
G04 Gerber Fmt 4.6, Leading zero omitted, Abs format (unit mm)*
G04 Created by KiCad (PCBNEW (5.1.6)-1) date 2020-07-01 11:52:29*
%MOMM*%
%LPD*%
G01*
G04 APERTURE LIST*
%ADD10R,1.800000X1.800000*%
%ADD11O,1.800000X1.800000*%
%ADD12O,1.700000X1.700000*%
%ADD13C,1.700000*%
%ADD14C,3.300000*%
%ADD15R,1.700000X1.700000*%
%ADD16R,1.900000X1.900000*%
%ADD17C,1.900000*%
%ADD18O,1.600000X1.150000*%
%ADD19R,1.600000X1.150000*%
%ADD20O,1.900000X1.900000*%
G04 APERTURE END LIST*
D10*
%TO.C,JP1*%
X159766000Y-80518000D03*
D11*
X157226000Y-80518000D03*
%TD*%
D12*
%TO.C,R11*%
X153924000Y-112776000D03*
D13*
X161544000Y-112776000D03*
%TD*%
D14*
%TO.C,TP1*%
X110744000Y-72898000D03*
%TD*%
D13*
%TO.C,C1*%
X123444000Y-90678000D03*
X123444000Y-88178000D03*
%TD*%
%TO.C,C2*%
X148844000Y-80264000D03*
X146344000Y-80264000D03*
%TD*%
D15*
%TO.C,C3*%
X123444000Y-83058000D03*
D13*
X123444000Y-85558000D03*
%TD*%
%TO.C,C4*%
X146304000Y-88900000D03*
X143804000Y-88900000D03*
%TD*%
%TO.C,C5*%
X128056000Y-125222000D03*
X130556000Y-125222000D03*
%TD*%
%TO.C,C6*%
X155956000Y-123952000D03*
X158456000Y-123952000D03*
%TD*%
%TO.C,C7*%
X165060000Y-123698000D03*
D15*
X162560000Y-123698000D03*
%TD*%
D16*
%TO.C,D1*%
X115570000Y-102616000D03*
D17*
X118110000Y-102616000D03*
%TD*%
D16*
%TO.C,D2*%
X115570000Y-105918000D03*
D17*
X118110000Y-105918000D03*
%TD*%
%TO.C,D3*%
X118110000Y-108966000D03*
D16*
X115570000Y-108966000D03*
%TD*%
D10*
%TO.C,J1*%
X128778000Y-76708000D03*
%TD*%
D11*
%TO.C,J2*%
X116332000Y-85598000D03*
D10*
X116332000Y-83058000D03*
%TD*%
%TO.C,J3*%
X170688000Y-76708000D03*
D11*
X170688000Y-79248000D03*
X170688000Y-81788000D03*
X170688000Y-84328000D03*
X170688000Y-86868000D03*
X170688000Y-89408000D03*
%TD*%
D10*
%TO.C,J6*%
X116332000Y-93472000D03*
D11*
X116332000Y-96012000D03*
X116332000Y-98552000D03*
%TD*%
%TO.C,J7*%
X128016000Y-128270000D03*
D10*
X130556000Y-128270000D03*
%TD*%
%TO.C,J8*%
X155956000Y-128270000D03*
D11*
X158496000Y-128270000D03*
%TD*%
%TO.C,JP2*%
X141224000Y-76708000D03*
X138684000Y-76708000D03*
D10*
X136144000Y-76708000D03*
%TD*%
%TO.C,JP3*%
X157226000Y-76708000D03*
D11*
X159766000Y-76708000D03*
%TD*%
D18*
%TO.C,Q1*%
X123444000Y-97282000D03*
X123444000Y-96012000D03*
D19*
X123444000Y-98552000D03*
%TD*%
%TO.C,Q2*%
X149352000Y-121412000D03*
D18*
X149352000Y-118872000D03*
X149352000Y-120142000D03*
%TD*%
%TO.C,Q3*%
X149352000Y-125984000D03*
X149352000Y-124714000D03*
D19*
X149352000Y-127254000D03*
%TD*%
D15*
%TO.C,U1*%
X141224000Y-91948000D03*
D12*
X148844000Y-114808000D03*
X141224000Y-94488000D03*
X148844000Y-112268000D03*
X141224000Y-97028000D03*
X148844000Y-109728000D03*
X141224000Y-99568000D03*
X148844000Y-107188000D03*
X141224000Y-102108000D03*
X148844000Y-104648000D03*
X141224000Y-104648000D03*
X148844000Y-102108000D03*
X141224000Y-107188000D03*
X148844000Y-99568000D03*
X141224000Y-109728000D03*
X148844000Y-97028000D03*
X141224000Y-112268000D03*
X148844000Y-94488000D03*
X141224000Y-114808000D03*
X148844000Y-91948000D03*
%TD*%
D13*
%TO.C,R1*%
X128524000Y-83058000D03*
D12*
X128524000Y-90678000D03*
%TD*%
%TO.C,R2*%
X131826000Y-90678000D03*
D13*
X131826000Y-83058000D03*
%TD*%
D12*
%TO.C,R3*%
X148844000Y-83058000D03*
D13*
X141224000Y-83058000D03*
%TD*%
%TO.C,R4*%
X128524000Y-102616000D03*
D12*
X136144000Y-102616000D03*
%TD*%
%TO.C,R5*%
X153924000Y-94488000D03*
D13*
X161544000Y-94488000D03*
%TD*%
%TO.C,R6*%
X161544000Y-97028000D03*
D12*
X153924000Y-97028000D03*
%TD*%
%TO.C,R7*%
X141224000Y-86106000D03*
D13*
X148844000Y-86106000D03*
%TD*%
%TO.C,R8*%
X128524000Y-98044000D03*
D12*
X136144000Y-98044000D03*
%TD*%
%TO.C,R9*%
X136144000Y-93726000D03*
D13*
X128524000Y-93726000D03*
%TD*%
%TO.C,R10*%
X161544000Y-109728000D03*
D12*
X153924000Y-109728000D03*
%TD*%
D13*
%TO.C,R12*%
X157480000Y-99568000D03*
D12*
X157480000Y-107188000D03*
%TD*%
D13*
%TO.C,R13*%
X154432000Y-99568000D03*
D12*
X154432000Y-107188000D03*
%TD*%
D13*
%TO.C,R14*%
X153924000Y-88138000D03*
D12*
X161544000Y-88138000D03*
%TD*%
D13*
%TO.C,R15*%
X136144000Y-105664000D03*
D12*
X128524000Y-105664000D03*
%TD*%
%TO.C,R16*%
X128524000Y-108712000D03*
D13*
X136144000Y-108712000D03*
%TD*%
D12*
%TO.C,R17*%
X135382000Y-120142000D03*
D13*
X143002000Y-120142000D03*
%TD*%
%TO.C,R18*%
X161544000Y-118872000D03*
D12*
X153924000Y-118872000D03*
%TD*%
%TO.C,R19*%
X153924000Y-115824000D03*
D13*
X161544000Y-115824000D03*
%TD*%
D12*
%TO.C,R20*%
X121412000Y-118364000D03*
D13*
X129032000Y-118364000D03*
%TD*%
%TO.C,R21*%
X121920000Y-121412000D03*
D12*
X121920000Y-129032000D03*
%TD*%
%TO.C,R22*%
X135382000Y-123190000D03*
D13*
X143002000Y-123190000D03*
%TD*%
D16*
%TO.C,D4*%
X143002000Y-127254000D03*
D20*
X135382000Y-127254000D03*
%TD*%
D16*
%TO.C,D5*%
X115570000Y-112268000D03*
D17*
X118110000Y-112268000D03*
%TD*%
D11*
%TO.C,J4*%
X170688000Y-107188000D03*
X170688000Y-104648000D03*
X170688000Y-102108000D03*
X170688000Y-99568000D03*
D10*
X170688000Y-97028000D03*
%TD*%
%TO.C,J5*%
X170688000Y-114808000D03*
D11*
X170688000Y-117348000D03*
X170688000Y-119888000D03*
X170688000Y-122428000D03*
X170688000Y-124968000D03*
%TD*%
%TO.C,J9*%
X116586000Y-125984000D03*
X116586000Y-123444000D03*
X116586000Y-120904000D03*
D10*
X116586000Y-118364000D03*
%TD*%
%TO.C,J10*%
X122936000Y-103378000D03*
D11*
X122936000Y-105918000D03*
X122936000Y-108458000D03*
X122936000Y-110998000D03*
%TD*%
D13*
%TO.C,R23*%
X136144000Y-111760000D03*
D12*
X128524000Y-111760000D03*
%TD*%
D14*
%TO.C,TP2*%
X176784000Y-72898000D03*
%TD*%
%TO.C,TP3*%
X176784000Y-131318000D03*
%TD*%
%TO.C,TP4*%
X110744000Y-131318000D03*
%TD*%
M02*
