%TF.GenerationSoftware,KiCad,Pcbnew,(5.1.6)-1*%
%TF.CreationDate,2020-07-01T11:52:29+01:00*%
%TF.ProjectId,QO100_Control_V2,514f3130-305f-4436-9f6e-74726f6c5f56,rev?*%
%TF.SameCoordinates,Original*%
%TF.FileFunction,Legend,Top*%
%TF.FilePolarity,Positive*%
%FSLAX46Y46*%
G04 Gerber Fmt 4.6, Leading zero omitted, Abs format (unit mm)*
G04 Created by KiCad (PCBNEW (5.1.6)-1) date 2020-07-01 11:52:29*
%MOMM*%
%LPD*%
G01*
G04 APERTURE LIST*
%ADD10C,0.300000*%
%ADD11C,0.150000*%
%ADD12C,0.120000*%
G04 APERTURE END LIST*
D10*
X128033714Y-72957428D02*
X127890857Y-72886000D01*
X127748000Y-72743142D01*
X127533714Y-72528857D01*
X127390857Y-72457428D01*
X127248000Y-72457428D01*
X127319428Y-72814571D02*
X127176571Y-72743142D01*
X127033714Y-72600285D01*
X126962285Y-72314571D01*
X126962285Y-71814571D01*
X127033714Y-71528857D01*
X127176571Y-71386000D01*
X127319428Y-71314571D01*
X127605142Y-71314571D01*
X127748000Y-71386000D01*
X127890857Y-71528857D01*
X127962285Y-71814571D01*
X127962285Y-72314571D01*
X127890857Y-72600285D01*
X127748000Y-72743142D01*
X127605142Y-72814571D01*
X127319428Y-72814571D01*
X128890857Y-71314571D02*
X129176571Y-71314571D01*
X129319428Y-71386000D01*
X129462285Y-71528857D01*
X129533714Y-71814571D01*
X129533714Y-72314571D01*
X129462285Y-72600285D01*
X129319428Y-72743142D01*
X129176571Y-72814571D01*
X128890857Y-72814571D01*
X128748000Y-72743142D01*
X128605142Y-72600285D01*
X128533714Y-72314571D01*
X128533714Y-71814571D01*
X128605142Y-71528857D01*
X128748000Y-71386000D01*
X128890857Y-71314571D01*
X130176571Y-72243142D02*
X131319428Y-72243142D01*
X132819428Y-72814571D02*
X131962285Y-72814571D01*
X132390857Y-72814571D02*
X132390857Y-71314571D01*
X132248000Y-71528857D01*
X132105142Y-71671714D01*
X131962285Y-71743142D01*
X133748000Y-71314571D02*
X133890857Y-71314571D01*
X134033714Y-71386000D01*
X134105142Y-71457428D01*
X134176571Y-71600285D01*
X134248000Y-71886000D01*
X134248000Y-72243142D01*
X134176571Y-72528857D01*
X134105142Y-72671714D01*
X134033714Y-72743142D01*
X133890857Y-72814571D01*
X133748000Y-72814571D01*
X133605142Y-72743142D01*
X133533714Y-72671714D01*
X133462285Y-72528857D01*
X133390857Y-72243142D01*
X133390857Y-71886000D01*
X133462285Y-71600285D01*
X133533714Y-71457428D01*
X133605142Y-71386000D01*
X133748000Y-71314571D01*
X135176571Y-71314571D02*
X135319428Y-71314571D01*
X135462285Y-71386000D01*
X135533714Y-71457428D01*
X135605142Y-71600285D01*
X135676571Y-71886000D01*
X135676571Y-72243142D01*
X135605142Y-72528857D01*
X135533714Y-72671714D01*
X135462285Y-72743142D01*
X135319428Y-72814571D01*
X135176571Y-72814571D01*
X135033714Y-72743142D01*
X134962285Y-72671714D01*
X134890857Y-72528857D01*
X134819428Y-72243142D01*
X134819428Y-71886000D01*
X134890857Y-71600285D01*
X134962285Y-71457428D01*
X135033714Y-71386000D01*
X135176571Y-71314571D01*
X137248000Y-71314571D02*
X138105142Y-71314571D01*
X137676571Y-72814571D02*
X137676571Y-71314571D01*
X138605142Y-72814571D02*
X138605142Y-71814571D01*
X138605142Y-72100285D02*
X138676571Y-71957428D01*
X138748000Y-71886000D01*
X138890857Y-71814571D01*
X139033714Y-71814571D01*
X140176571Y-72814571D02*
X140176571Y-72028857D01*
X140105142Y-71886000D01*
X139962285Y-71814571D01*
X139676571Y-71814571D01*
X139533714Y-71886000D01*
X140176571Y-72743142D02*
X140033714Y-72814571D01*
X139676571Y-72814571D01*
X139533714Y-72743142D01*
X139462285Y-72600285D01*
X139462285Y-72457428D01*
X139533714Y-72314571D01*
X139676571Y-72243142D01*
X140033714Y-72243142D01*
X140176571Y-72171714D01*
X140890857Y-71814571D02*
X140890857Y-72814571D01*
X140890857Y-71957428D02*
X140962285Y-71886000D01*
X141105142Y-71814571D01*
X141319428Y-71814571D01*
X141462285Y-71886000D01*
X141533714Y-72028857D01*
X141533714Y-72814571D01*
X142176571Y-72743142D02*
X142319428Y-72814571D01*
X142605142Y-72814571D01*
X142748000Y-72743142D01*
X142819428Y-72600285D01*
X142819428Y-72528857D01*
X142748000Y-72386000D01*
X142605142Y-72314571D01*
X142390857Y-72314571D01*
X142248000Y-72243142D01*
X142176571Y-72100285D01*
X142176571Y-72028857D01*
X142248000Y-71886000D01*
X142390857Y-71814571D01*
X142605142Y-71814571D01*
X142748000Y-71886000D01*
X143319428Y-71814571D02*
X143676571Y-72814571D01*
X144033714Y-71814571D01*
X145176571Y-72743142D02*
X145033714Y-72814571D01*
X144748000Y-72814571D01*
X144605142Y-72743142D01*
X144533714Y-72600285D01*
X144533714Y-72028857D01*
X144605142Y-71886000D01*
X144748000Y-71814571D01*
X145033714Y-71814571D01*
X145176571Y-71886000D01*
X145248000Y-72028857D01*
X145248000Y-72171714D01*
X144533714Y-72314571D01*
X145890857Y-72814571D02*
X145890857Y-71814571D01*
X145890857Y-72100285D02*
X145962285Y-71957428D01*
X146033714Y-71886000D01*
X146176571Y-71814571D01*
X146319428Y-71814571D01*
X146605142Y-71814571D02*
X147176571Y-71814571D01*
X146819428Y-71314571D02*
X146819428Y-72600285D01*
X146890857Y-72743142D01*
X147033714Y-72814571D01*
X147176571Y-72814571D01*
X148248000Y-72743142D02*
X148105142Y-72814571D01*
X147819428Y-72814571D01*
X147676571Y-72743142D01*
X147605142Y-72600285D01*
X147605142Y-72028857D01*
X147676571Y-71886000D01*
X147819428Y-71814571D01*
X148105142Y-71814571D01*
X148248000Y-71886000D01*
X148319428Y-72028857D01*
X148319428Y-72171714D01*
X147605142Y-72314571D01*
X148962285Y-72814571D02*
X148962285Y-71814571D01*
X148962285Y-72100285D02*
X149033714Y-71957428D01*
X149105142Y-71886000D01*
X149248000Y-71814571D01*
X149390857Y-71814571D01*
X151890857Y-72671714D02*
X151819428Y-72743142D01*
X151605142Y-72814571D01*
X151462285Y-72814571D01*
X151248000Y-72743142D01*
X151105142Y-72600285D01*
X151033714Y-72457428D01*
X150962285Y-72171714D01*
X150962285Y-71957428D01*
X151033714Y-71671714D01*
X151105142Y-71528857D01*
X151248000Y-71386000D01*
X151462285Y-71314571D01*
X151605142Y-71314571D01*
X151819428Y-71386000D01*
X151890857Y-71457428D01*
X152748000Y-72814571D02*
X152605142Y-72743142D01*
X152533714Y-72671714D01*
X152462285Y-72528857D01*
X152462285Y-72100285D01*
X152533714Y-71957428D01*
X152605142Y-71886000D01*
X152748000Y-71814571D01*
X152962285Y-71814571D01*
X153105142Y-71886000D01*
X153176571Y-71957428D01*
X153248000Y-72100285D01*
X153248000Y-72528857D01*
X153176571Y-72671714D01*
X153105142Y-72743142D01*
X152962285Y-72814571D01*
X152748000Y-72814571D01*
X153890857Y-71814571D02*
X153890857Y-72814571D01*
X153890857Y-71957428D02*
X153962285Y-71886000D01*
X154105142Y-71814571D01*
X154319428Y-71814571D01*
X154462285Y-71886000D01*
X154533714Y-72028857D01*
X154533714Y-72814571D01*
X155033714Y-71814571D02*
X155605142Y-71814571D01*
X155248000Y-71314571D02*
X155248000Y-72600285D01*
X155319428Y-72743142D01*
X155462285Y-72814571D01*
X155605142Y-72814571D01*
X156105142Y-72814571D02*
X156105142Y-71814571D01*
X156105142Y-72100285D02*
X156176571Y-71957428D01*
X156248000Y-71886000D01*
X156390857Y-71814571D01*
X156533714Y-71814571D01*
X157248000Y-72814571D02*
X157105142Y-72743142D01*
X157033714Y-72671714D01*
X156962285Y-72528857D01*
X156962285Y-72100285D01*
X157033714Y-71957428D01*
X157105142Y-71886000D01*
X157248000Y-71814571D01*
X157462285Y-71814571D01*
X157605142Y-71886000D01*
X157676571Y-71957428D01*
X157748000Y-72100285D01*
X157748000Y-72528857D01*
X157676571Y-72671714D01*
X157605142Y-72743142D01*
X157462285Y-72814571D01*
X157248000Y-72814571D01*
X158605142Y-72814571D02*
X158462285Y-72743142D01*
X158390857Y-72600285D01*
X158390857Y-71314571D01*
D11*
X114244380Y-113363238D02*
X113244380Y-113363238D01*
X113244380Y-112982285D01*
X113292000Y-112887047D01*
X113339619Y-112839428D01*
X113434857Y-112791809D01*
X113577714Y-112791809D01*
X113672952Y-112839428D01*
X113720571Y-112887047D01*
X113768190Y-112982285D01*
X113768190Y-113363238D01*
X113577714Y-112458476D02*
X114244380Y-112268000D01*
X113768190Y-112077523D01*
X114244380Y-111887047D01*
X113577714Y-111696571D01*
X114244380Y-111315619D02*
X113577714Y-111315619D01*
X113768190Y-111315619D02*
X113672952Y-111268000D01*
X113625333Y-111220380D01*
X113577714Y-111125142D01*
X113577714Y-111029904D01*
X113244380Y-103306476D02*
X113244380Y-102735047D01*
X114244380Y-103020761D02*
X113244380Y-103020761D01*
X114244380Y-102496952D02*
X113577714Y-101973142D01*
X113577714Y-102496952D02*
X114244380Y-101973142D01*
X113720571Y-106941809D02*
X113768190Y-106798952D01*
X113815809Y-106751333D01*
X113911047Y-106703714D01*
X114053904Y-106703714D01*
X114149142Y-106751333D01*
X114196761Y-106798952D01*
X114244380Y-106894190D01*
X114244380Y-107275142D01*
X113244380Y-107275142D01*
X113244380Y-106941809D01*
X113292000Y-106846571D01*
X113339619Y-106798952D01*
X113434857Y-106751333D01*
X113530095Y-106751333D01*
X113625333Y-106798952D01*
X113672952Y-106846571D01*
X113720571Y-106941809D01*
X113720571Y-107275142D01*
X114244380Y-106275142D02*
X113577714Y-106275142D01*
X113244380Y-106275142D02*
X113292000Y-106322761D01*
X113339619Y-106275142D01*
X113292000Y-106227523D01*
X113244380Y-106275142D01*
X113339619Y-106275142D01*
X114244380Y-105370380D02*
X113720571Y-105370380D01*
X113625333Y-105418000D01*
X113577714Y-105513238D01*
X113577714Y-105703714D01*
X113625333Y-105798952D01*
X114196761Y-105370380D02*
X114244380Y-105465619D01*
X114244380Y-105703714D01*
X114196761Y-105798952D01*
X114101523Y-105846571D01*
X114006285Y-105846571D01*
X113911047Y-105798952D01*
X113863428Y-105703714D01*
X113863428Y-105465619D01*
X113815809Y-105370380D01*
X114196761Y-104941809D02*
X114244380Y-104846571D01*
X114244380Y-104656095D01*
X114196761Y-104560857D01*
X114101523Y-104513238D01*
X114053904Y-104513238D01*
X113958666Y-104560857D01*
X113911047Y-104656095D01*
X113911047Y-104798952D01*
X113863428Y-104894190D01*
X113768190Y-104941809D01*
X113720571Y-104941809D01*
X113625333Y-104894190D01*
X113577714Y-104798952D01*
X113577714Y-104656095D01*
X113625333Y-104560857D01*
X114244380Y-109061238D02*
X113768190Y-109394571D01*
X114244380Y-109632666D02*
X113244380Y-109632666D01*
X113244380Y-109251714D01*
X113292000Y-109156476D01*
X113339619Y-109108857D01*
X113434857Y-109061238D01*
X113577714Y-109061238D01*
X113672952Y-109108857D01*
X113720571Y-109156476D01*
X113768190Y-109251714D01*
X113768190Y-109632666D01*
X114244380Y-108727904D02*
X113577714Y-108204095D01*
X113577714Y-108727904D02*
X114244380Y-108204095D01*
D12*
%TO.C,JP1*%
X155896000Y-79188000D02*
X155896000Y-81848000D01*
X158496000Y-79188000D02*
X155896000Y-79188000D01*
X158496000Y-81848000D02*
X155896000Y-81848000D01*
X158496000Y-79188000D02*
X158496000Y-81848000D01*
X159766000Y-79188000D02*
X161096000Y-79188000D01*
X161096000Y-79188000D02*
X161096000Y-80518000D01*
%TO.C,R11*%
X154464000Y-111406000D02*
X154464000Y-111736000D01*
X161004000Y-111406000D02*
X154464000Y-111406000D01*
X161004000Y-111736000D02*
X161004000Y-111406000D01*
X154464000Y-114146000D02*
X154464000Y-113816000D01*
X161004000Y-114146000D02*
X154464000Y-114146000D01*
X161004000Y-113816000D02*
X161004000Y-114146000D01*
%TO.C,C1*%
X122274000Y-91248000D02*
X122274000Y-87608000D01*
X124614000Y-91248000D02*
X124614000Y-87608000D01*
X122274000Y-91248000D02*
X122519000Y-91248000D01*
X124369000Y-91248000D02*
X124614000Y-91248000D01*
X122274000Y-87608000D02*
X122519000Y-87608000D01*
X124369000Y-87608000D02*
X124614000Y-87608000D01*
%TO.C,C2*%
X149414000Y-81434000D02*
X145774000Y-81434000D01*
X149414000Y-79094000D02*
X145774000Y-79094000D01*
X149414000Y-81434000D02*
X149414000Y-81189000D01*
X149414000Y-79339000D02*
X149414000Y-79094000D01*
X145774000Y-81434000D02*
X145774000Y-81189000D01*
X145774000Y-79339000D02*
X145774000Y-79094000D01*
%TO.C,C3*%
X126064000Y-84308000D02*
G75*
G03*
X126064000Y-84308000I-2620000J0D01*
G01*
X126024000Y-84308000D02*
X120864000Y-84308000D01*
X126024000Y-84348000D02*
X120864000Y-84348000D01*
X126023000Y-84388000D02*
X120865000Y-84388000D01*
X126022000Y-84428000D02*
X120866000Y-84428000D01*
X126020000Y-84468000D02*
X120868000Y-84468000D01*
X126017000Y-84508000D02*
X120871000Y-84508000D01*
X126013000Y-84548000D02*
X124484000Y-84548000D01*
X122404000Y-84548000D02*
X120875000Y-84548000D01*
X126009000Y-84588000D02*
X124484000Y-84588000D01*
X122404000Y-84588000D02*
X120879000Y-84588000D01*
X126005000Y-84628000D02*
X124484000Y-84628000D01*
X122404000Y-84628000D02*
X120883000Y-84628000D01*
X126000000Y-84668000D02*
X124484000Y-84668000D01*
X122404000Y-84668000D02*
X120888000Y-84668000D01*
X125994000Y-84708000D02*
X124484000Y-84708000D01*
X122404000Y-84708000D02*
X120894000Y-84708000D01*
X125987000Y-84748000D02*
X124484000Y-84748000D01*
X122404000Y-84748000D02*
X120901000Y-84748000D01*
X125980000Y-84788000D02*
X124484000Y-84788000D01*
X122404000Y-84788000D02*
X120908000Y-84788000D01*
X125972000Y-84828000D02*
X124484000Y-84828000D01*
X122404000Y-84828000D02*
X120916000Y-84828000D01*
X125964000Y-84868000D02*
X124484000Y-84868000D01*
X122404000Y-84868000D02*
X120924000Y-84868000D01*
X125955000Y-84908000D02*
X124484000Y-84908000D01*
X122404000Y-84908000D02*
X120933000Y-84908000D01*
X125945000Y-84948000D02*
X124484000Y-84948000D01*
X122404000Y-84948000D02*
X120943000Y-84948000D01*
X125935000Y-84988000D02*
X124484000Y-84988000D01*
X122404000Y-84988000D02*
X120953000Y-84988000D01*
X125924000Y-85029000D02*
X124484000Y-85029000D01*
X122404000Y-85029000D02*
X120964000Y-85029000D01*
X125912000Y-85069000D02*
X124484000Y-85069000D01*
X122404000Y-85069000D02*
X120976000Y-85069000D01*
X125899000Y-85109000D02*
X124484000Y-85109000D01*
X122404000Y-85109000D02*
X120989000Y-85109000D01*
X125886000Y-85149000D02*
X124484000Y-85149000D01*
X122404000Y-85149000D02*
X121002000Y-85149000D01*
X125872000Y-85189000D02*
X124484000Y-85189000D01*
X122404000Y-85189000D02*
X121016000Y-85189000D01*
X125858000Y-85229000D02*
X124484000Y-85229000D01*
X122404000Y-85229000D02*
X121030000Y-85229000D01*
X125842000Y-85269000D02*
X124484000Y-85269000D01*
X122404000Y-85269000D02*
X121046000Y-85269000D01*
X125826000Y-85309000D02*
X124484000Y-85309000D01*
X122404000Y-85309000D02*
X121062000Y-85309000D01*
X125809000Y-85349000D02*
X124484000Y-85349000D01*
X122404000Y-85349000D02*
X121079000Y-85349000D01*
X125792000Y-85389000D02*
X124484000Y-85389000D01*
X122404000Y-85389000D02*
X121096000Y-85389000D01*
X125773000Y-85429000D02*
X124484000Y-85429000D01*
X122404000Y-85429000D02*
X121115000Y-85429000D01*
X125754000Y-85469000D02*
X124484000Y-85469000D01*
X122404000Y-85469000D02*
X121134000Y-85469000D01*
X125734000Y-85509000D02*
X124484000Y-85509000D01*
X122404000Y-85509000D02*
X121154000Y-85509000D01*
X125712000Y-85549000D02*
X124484000Y-85549000D01*
X122404000Y-85549000D02*
X121176000Y-85549000D01*
X125691000Y-85589000D02*
X124484000Y-85589000D01*
X122404000Y-85589000D02*
X121197000Y-85589000D01*
X125668000Y-85629000D02*
X124484000Y-85629000D01*
X122404000Y-85629000D02*
X121220000Y-85629000D01*
X125644000Y-85669000D02*
X124484000Y-85669000D01*
X122404000Y-85669000D02*
X121244000Y-85669000D01*
X125619000Y-85709000D02*
X124484000Y-85709000D01*
X122404000Y-85709000D02*
X121269000Y-85709000D01*
X125593000Y-85749000D02*
X124484000Y-85749000D01*
X122404000Y-85749000D02*
X121295000Y-85749000D01*
X125566000Y-85789000D02*
X124484000Y-85789000D01*
X122404000Y-85789000D02*
X121322000Y-85789000D01*
X125539000Y-85829000D02*
X124484000Y-85829000D01*
X122404000Y-85829000D02*
X121349000Y-85829000D01*
X125509000Y-85869000D02*
X124484000Y-85869000D01*
X122404000Y-85869000D02*
X121379000Y-85869000D01*
X125479000Y-85909000D02*
X124484000Y-85909000D01*
X122404000Y-85909000D02*
X121409000Y-85909000D01*
X125448000Y-85949000D02*
X124484000Y-85949000D01*
X122404000Y-85949000D02*
X121440000Y-85949000D01*
X125415000Y-85989000D02*
X124484000Y-85989000D01*
X122404000Y-85989000D02*
X121473000Y-85989000D01*
X125381000Y-86029000D02*
X124484000Y-86029000D01*
X122404000Y-86029000D02*
X121507000Y-86029000D01*
X125345000Y-86069000D02*
X124484000Y-86069000D01*
X122404000Y-86069000D02*
X121543000Y-86069000D01*
X125308000Y-86109000D02*
X124484000Y-86109000D01*
X122404000Y-86109000D02*
X121580000Y-86109000D01*
X125270000Y-86149000D02*
X124484000Y-86149000D01*
X122404000Y-86149000D02*
X121618000Y-86149000D01*
X125229000Y-86189000D02*
X124484000Y-86189000D01*
X122404000Y-86189000D02*
X121659000Y-86189000D01*
X125187000Y-86229000D02*
X124484000Y-86229000D01*
X122404000Y-86229000D02*
X121701000Y-86229000D01*
X125143000Y-86269000D02*
X124484000Y-86269000D01*
X122404000Y-86269000D02*
X121745000Y-86269000D01*
X125097000Y-86309000D02*
X124484000Y-86309000D01*
X122404000Y-86309000D02*
X121791000Y-86309000D01*
X125049000Y-86349000D02*
X124484000Y-86349000D01*
X122404000Y-86349000D02*
X121839000Y-86349000D01*
X124998000Y-86389000D02*
X124484000Y-86389000D01*
X122404000Y-86389000D02*
X121890000Y-86389000D01*
X124944000Y-86429000D02*
X124484000Y-86429000D01*
X122404000Y-86429000D02*
X121944000Y-86429000D01*
X124887000Y-86469000D02*
X124484000Y-86469000D01*
X122404000Y-86469000D02*
X122001000Y-86469000D01*
X124827000Y-86509000D02*
X124484000Y-86509000D01*
X122404000Y-86509000D02*
X122061000Y-86509000D01*
X124763000Y-86549000D02*
X124484000Y-86549000D01*
X122404000Y-86549000D02*
X122125000Y-86549000D01*
X124695000Y-86589000D02*
X124484000Y-86589000D01*
X122404000Y-86589000D02*
X122193000Y-86589000D01*
X124622000Y-86629000D02*
X122266000Y-86629000D01*
X124542000Y-86669000D02*
X122346000Y-86669000D01*
X124455000Y-86709000D02*
X122433000Y-86709000D01*
X124359000Y-86749000D02*
X122529000Y-86749000D01*
X124249000Y-86789000D02*
X122639000Y-86789000D01*
X124121000Y-86829000D02*
X122767000Y-86829000D01*
X123962000Y-86869000D02*
X122926000Y-86869000D01*
X123728000Y-86909000D02*
X123160000Y-86909000D01*
X124919000Y-81503225D02*
X124919000Y-82003225D01*
X125169000Y-81753225D02*
X124669000Y-81753225D01*
%TO.C,C4*%
X146874000Y-89825000D02*
X146874000Y-90070000D01*
X146874000Y-87730000D02*
X146874000Y-87975000D01*
X143234000Y-89825000D02*
X143234000Y-90070000D01*
X143234000Y-87730000D02*
X143234000Y-87975000D01*
X143234000Y-90070000D02*
X146874000Y-90070000D01*
X143234000Y-87730000D02*
X146874000Y-87730000D01*
%TO.C,C5*%
X127486000Y-124297000D02*
X127486000Y-124052000D01*
X127486000Y-126392000D02*
X127486000Y-126147000D01*
X131126000Y-124297000D02*
X131126000Y-124052000D01*
X131126000Y-126392000D02*
X131126000Y-126147000D01*
X131126000Y-124052000D02*
X127486000Y-124052000D01*
X131126000Y-126392000D02*
X127486000Y-126392000D01*
%TO.C,C6*%
X155386000Y-122782000D02*
X159026000Y-122782000D01*
X155386000Y-125122000D02*
X159026000Y-125122000D01*
X155386000Y-122782000D02*
X155386000Y-123027000D01*
X155386000Y-124877000D02*
X155386000Y-125122000D01*
X159026000Y-122782000D02*
X159026000Y-123027000D01*
X159026000Y-124877000D02*
X159026000Y-125122000D01*
%TO.C,C7*%
X161255225Y-121973000D02*
X161255225Y-122473000D01*
X161005225Y-122223000D02*
X161505225Y-122223000D01*
X166411000Y-123414000D02*
X166411000Y-123982000D01*
X166371000Y-123180000D02*
X166371000Y-124216000D01*
X166331000Y-123021000D02*
X166331000Y-124375000D01*
X166291000Y-122893000D02*
X166291000Y-124503000D01*
X166251000Y-122783000D02*
X166251000Y-124613000D01*
X166211000Y-122687000D02*
X166211000Y-124709000D01*
X166171000Y-122600000D02*
X166171000Y-124796000D01*
X166131000Y-122520000D02*
X166131000Y-124876000D01*
X166091000Y-124738000D02*
X166091000Y-124949000D01*
X166091000Y-122447000D02*
X166091000Y-122658000D01*
X166051000Y-124738000D02*
X166051000Y-125017000D01*
X166051000Y-122379000D02*
X166051000Y-122658000D01*
X166011000Y-124738000D02*
X166011000Y-125081000D01*
X166011000Y-122315000D02*
X166011000Y-122658000D01*
X165971000Y-124738000D02*
X165971000Y-125141000D01*
X165971000Y-122255000D02*
X165971000Y-122658000D01*
X165931000Y-124738000D02*
X165931000Y-125198000D01*
X165931000Y-122198000D02*
X165931000Y-122658000D01*
X165891000Y-124738000D02*
X165891000Y-125252000D01*
X165891000Y-122144000D02*
X165891000Y-122658000D01*
X165851000Y-124738000D02*
X165851000Y-125303000D01*
X165851000Y-122093000D02*
X165851000Y-122658000D01*
X165811000Y-124738000D02*
X165811000Y-125351000D01*
X165811000Y-122045000D02*
X165811000Y-122658000D01*
X165771000Y-124738000D02*
X165771000Y-125397000D01*
X165771000Y-121999000D02*
X165771000Y-122658000D01*
X165731000Y-124738000D02*
X165731000Y-125441000D01*
X165731000Y-121955000D02*
X165731000Y-122658000D01*
X165691000Y-124738000D02*
X165691000Y-125483000D01*
X165691000Y-121913000D02*
X165691000Y-122658000D01*
X165651000Y-124738000D02*
X165651000Y-125524000D01*
X165651000Y-121872000D02*
X165651000Y-122658000D01*
X165611000Y-124738000D02*
X165611000Y-125562000D01*
X165611000Y-121834000D02*
X165611000Y-122658000D01*
X165571000Y-124738000D02*
X165571000Y-125599000D01*
X165571000Y-121797000D02*
X165571000Y-122658000D01*
X165531000Y-124738000D02*
X165531000Y-125635000D01*
X165531000Y-121761000D02*
X165531000Y-122658000D01*
X165491000Y-124738000D02*
X165491000Y-125669000D01*
X165491000Y-121727000D02*
X165491000Y-122658000D01*
X165451000Y-124738000D02*
X165451000Y-125702000D01*
X165451000Y-121694000D02*
X165451000Y-122658000D01*
X165411000Y-124738000D02*
X165411000Y-125733000D01*
X165411000Y-121663000D02*
X165411000Y-122658000D01*
X165371000Y-124738000D02*
X165371000Y-125763000D01*
X165371000Y-121633000D02*
X165371000Y-122658000D01*
X165331000Y-124738000D02*
X165331000Y-125793000D01*
X165331000Y-121603000D02*
X165331000Y-122658000D01*
X165291000Y-124738000D02*
X165291000Y-125820000D01*
X165291000Y-121576000D02*
X165291000Y-122658000D01*
X165251000Y-124738000D02*
X165251000Y-125847000D01*
X165251000Y-121549000D02*
X165251000Y-122658000D01*
X165211000Y-124738000D02*
X165211000Y-125873000D01*
X165211000Y-121523000D02*
X165211000Y-122658000D01*
X165171000Y-124738000D02*
X165171000Y-125898000D01*
X165171000Y-121498000D02*
X165171000Y-122658000D01*
X165131000Y-124738000D02*
X165131000Y-125922000D01*
X165131000Y-121474000D02*
X165131000Y-122658000D01*
X165091000Y-124738000D02*
X165091000Y-125945000D01*
X165091000Y-121451000D02*
X165091000Y-122658000D01*
X165051000Y-124738000D02*
X165051000Y-125966000D01*
X165051000Y-121430000D02*
X165051000Y-122658000D01*
X165011000Y-124738000D02*
X165011000Y-125988000D01*
X165011000Y-121408000D02*
X165011000Y-122658000D01*
X164971000Y-124738000D02*
X164971000Y-126008000D01*
X164971000Y-121388000D02*
X164971000Y-122658000D01*
X164931000Y-124738000D02*
X164931000Y-126027000D01*
X164931000Y-121369000D02*
X164931000Y-122658000D01*
X164891000Y-124738000D02*
X164891000Y-126046000D01*
X164891000Y-121350000D02*
X164891000Y-122658000D01*
X164851000Y-124738000D02*
X164851000Y-126063000D01*
X164851000Y-121333000D02*
X164851000Y-122658000D01*
X164811000Y-124738000D02*
X164811000Y-126080000D01*
X164811000Y-121316000D02*
X164811000Y-122658000D01*
X164771000Y-124738000D02*
X164771000Y-126096000D01*
X164771000Y-121300000D02*
X164771000Y-122658000D01*
X164731000Y-124738000D02*
X164731000Y-126112000D01*
X164731000Y-121284000D02*
X164731000Y-122658000D01*
X164691000Y-124738000D02*
X164691000Y-126126000D01*
X164691000Y-121270000D02*
X164691000Y-122658000D01*
X164651000Y-124738000D02*
X164651000Y-126140000D01*
X164651000Y-121256000D02*
X164651000Y-122658000D01*
X164611000Y-124738000D02*
X164611000Y-126153000D01*
X164611000Y-121243000D02*
X164611000Y-122658000D01*
X164571000Y-124738000D02*
X164571000Y-126166000D01*
X164571000Y-121230000D02*
X164571000Y-122658000D01*
X164531000Y-124738000D02*
X164531000Y-126178000D01*
X164531000Y-121218000D02*
X164531000Y-122658000D01*
X164490000Y-124738000D02*
X164490000Y-126189000D01*
X164490000Y-121207000D02*
X164490000Y-122658000D01*
X164450000Y-124738000D02*
X164450000Y-126199000D01*
X164450000Y-121197000D02*
X164450000Y-122658000D01*
X164410000Y-124738000D02*
X164410000Y-126209000D01*
X164410000Y-121187000D02*
X164410000Y-122658000D01*
X164370000Y-124738000D02*
X164370000Y-126218000D01*
X164370000Y-121178000D02*
X164370000Y-122658000D01*
X164330000Y-124738000D02*
X164330000Y-126226000D01*
X164330000Y-121170000D02*
X164330000Y-122658000D01*
X164290000Y-124738000D02*
X164290000Y-126234000D01*
X164290000Y-121162000D02*
X164290000Y-122658000D01*
X164250000Y-124738000D02*
X164250000Y-126241000D01*
X164250000Y-121155000D02*
X164250000Y-122658000D01*
X164210000Y-124738000D02*
X164210000Y-126248000D01*
X164210000Y-121148000D02*
X164210000Y-122658000D01*
X164170000Y-124738000D02*
X164170000Y-126254000D01*
X164170000Y-121142000D02*
X164170000Y-122658000D01*
X164130000Y-124738000D02*
X164130000Y-126259000D01*
X164130000Y-121137000D02*
X164130000Y-122658000D01*
X164090000Y-124738000D02*
X164090000Y-126263000D01*
X164090000Y-121133000D02*
X164090000Y-122658000D01*
X164050000Y-124738000D02*
X164050000Y-126267000D01*
X164050000Y-121129000D02*
X164050000Y-122658000D01*
X164010000Y-121125000D02*
X164010000Y-126271000D01*
X163970000Y-121122000D02*
X163970000Y-126274000D01*
X163930000Y-121120000D02*
X163930000Y-126276000D01*
X163890000Y-121119000D02*
X163890000Y-126277000D01*
X163850000Y-121118000D02*
X163850000Y-126278000D01*
X163810000Y-121118000D02*
X163810000Y-126278000D01*
X166430000Y-123698000D02*
G75*
G03*
X166430000Y-123698000I-2620000J0D01*
G01*
%TO.C,D1*%
X115130000Y-101356000D02*
X118550000Y-101356000D01*
X115130000Y-103876000D02*
X118550000Y-103876000D01*
X115130000Y-101356000D02*
X115130000Y-101536000D01*
X115130000Y-103696000D02*
X115130000Y-103876000D01*
X118550000Y-101356000D02*
X118550000Y-101521000D01*
X118550000Y-103711000D02*
X118550000Y-103876000D01*
X115250000Y-101356000D02*
X115250000Y-101536000D01*
X115250000Y-103696000D02*
X115250000Y-103876000D01*
X115370000Y-101356000D02*
X115370000Y-101536000D01*
X115370000Y-103696000D02*
X115370000Y-103876000D01*
%TO.C,D2*%
X115130000Y-104658000D02*
X118550000Y-104658000D01*
X115130000Y-107178000D02*
X118550000Y-107178000D01*
X115130000Y-104658000D02*
X115130000Y-104838000D01*
X115130000Y-106998000D02*
X115130000Y-107178000D01*
X118550000Y-104658000D02*
X118550000Y-104823000D01*
X118550000Y-107013000D02*
X118550000Y-107178000D01*
X115250000Y-104658000D02*
X115250000Y-104838000D01*
X115250000Y-106998000D02*
X115250000Y-107178000D01*
X115370000Y-104658000D02*
X115370000Y-104838000D01*
X115370000Y-106998000D02*
X115370000Y-107178000D01*
%TO.C,D3*%
X115370000Y-110046000D02*
X115370000Y-110226000D01*
X115370000Y-107706000D02*
X115370000Y-107886000D01*
X115250000Y-110046000D02*
X115250000Y-110226000D01*
X115250000Y-107706000D02*
X115250000Y-107886000D01*
X118550000Y-110061000D02*
X118550000Y-110226000D01*
X118550000Y-107706000D02*
X118550000Y-107871000D01*
X115130000Y-110046000D02*
X115130000Y-110226000D01*
X115130000Y-107706000D02*
X115130000Y-107886000D01*
X115130000Y-110226000D02*
X118550000Y-110226000D01*
X115130000Y-107706000D02*
X118550000Y-107706000D01*
%TO.C,J1*%
X127448000Y-78038000D02*
X130108000Y-78038000D01*
X127448000Y-77978000D02*
X127448000Y-78038000D01*
X130108000Y-77978000D02*
X130108000Y-78038000D01*
X127448000Y-77978000D02*
X130108000Y-77978000D01*
X127448000Y-76708000D02*
X127448000Y-75378000D01*
X127448000Y-75378000D02*
X128778000Y-75378000D01*
%TO.C,J2*%
X115002000Y-81728000D02*
X116332000Y-81728000D01*
X115002000Y-83058000D02*
X115002000Y-81728000D01*
X115002000Y-84328000D02*
X117662000Y-84328000D01*
X117662000Y-84328000D02*
X117662000Y-86928000D01*
X115002000Y-84328000D02*
X115002000Y-86928000D01*
X115002000Y-86928000D02*
X117662000Y-86928000D01*
%TO.C,J3*%
X169358000Y-90738000D02*
X172018000Y-90738000D01*
X169358000Y-77978000D02*
X169358000Y-90738000D01*
X172018000Y-77978000D02*
X172018000Y-90738000D01*
X169358000Y-77978000D02*
X172018000Y-77978000D01*
X169358000Y-76708000D02*
X169358000Y-75378000D01*
X169358000Y-75378000D02*
X170688000Y-75378000D01*
%TO.C,J6*%
X115002000Y-99882000D02*
X117662000Y-99882000D01*
X115002000Y-94742000D02*
X115002000Y-99882000D01*
X117662000Y-94742000D02*
X117662000Y-99882000D01*
X115002000Y-94742000D02*
X117662000Y-94742000D01*
X115002000Y-93472000D02*
X115002000Y-92142000D01*
X115002000Y-92142000D02*
X116332000Y-92142000D01*
%TO.C,J7*%
X131886000Y-126940000D02*
X131886000Y-128270000D01*
X130556000Y-126940000D02*
X131886000Y-126940000D01*
X129286000Y-126940000D02*
X129286000Y-129600000D01*
X129286000Y-129600000D02*
X126686000Y-129600000D01*
X129286000Y-126940000D02*
X126686000Y-126940000D01*
X126686000Y-126940000D02*
X126686000Y-129600000D01*
%TO.C,J8*%
X159826000Y-129600000D02*
X159826000Y-126940000D01*
X157226000Y-129600000D02*
X159826000Y-129600000D01*
X157226000Y-126940000D02*
X159826000Y-126940000D01*
X157226000Y-129600000D02*
X157226000Y-126940000D01*
X155956000Y-129600000D02*
X154626000Y-129600000D01*
X154626000Y-129600000D02*
X154626000Y-128270000D01*
%TO.C,JP2*%
X134814000Y-78038000D02*
X134814000Y-76708000D01*
X136144000Y-78038000D02*
X134814000Y-78038000D01*
X137414000Y-78038000D02*
X137414000Y-75378000D01*
X137414000Y-75378000D02*
X142554000Y-75378000D01*
X137414000Y-78038000D02*
X142554000Y-78038000D01*
X142554000Y-78038000D02*
X142554000Y-75378000D01*
%TO.C,JP3*%
X161096000Y-78038000D02*
X161096000Y-75378000D01*
X158496000Y-78038000D02*
X161096000Y-78038000D01*
X158496000Y-75378000D02*
X161096000Y-75378000D01*
X158496000Y-78038000D02*
X158496000Y-75378000D01*
X157226000Y-78038000D02*
X155896000Y-78038000D01*
X155896000Y-78038000D02*
X155896000Y-76708000D01*
%TO.C,Q1*%
X125294000Y-99082000D02*
X125294000Y-95482000D01*
X125282478Y-99120478D02*
G75*
G02*
X120844000Y-97282000I-1838478J1838478D01*
G01*
X125282478Y-95443522D02*
G75*
G03*
X120844000Y-97282000I-1838478J-1838478D01*
G01*
%TO.C,Q2*%
X151202000Y-121942000D02*
X151202000Y-118342000D01*
X151190478Y-118303522D02*
G75*
G03*
X146752000Y-120142000I-1838478J-1838478D01*
G01*
X151190478Y-121980478D02*
G75*
G02*
X146752000Y-120142000I-1838478J1838478D01*
G01*
%TO.C,Q3*%
X151202000Y-127784000D02*
X151202000Y-124184000D01*
X151190478Y-127822478D02*
G75*
G02*
X146752000Y-125984000I-1838478J1838478D01*
G01*
X151190478Y-124145522D02*
G75*
G03*
X146752000Y-125984000I-1838478J-1838478D01*
G01*
%TO.C,U1*%
X144034000Y-90618000D02*
X142384000Y-90618000D01*
X142384000Y-90618000D02*
X142384000Y-116138000D01*
X142384000Y-116138000D02*
X147684000Y-116138000D01*
X147684000Y-116138000D02*
X147684000Y-90618000D01*
X147684000Y-90618000D02*
X146034000Y-90618000D01*
X146034000Y-90618000D02*
G75*
G02*
X144034000Y-90618000I-1000000J0D01*
G01*
%TO.C,R1*%
X129564000Y-83598000D02*
X129894000Y-83598000D01*
X129894000Y-83598000D02*
X129894000Y-90138000D01*
X129894000Y-90138000D02*
X129564000Y-90138000D01*
X127484000Y-83598000D02*
X127154000Y-83598000D01*
X127154000Y-83598000D02*
X127154000Y-90138000D01*
X127154000Y-90138000D02*
X127484000Y-90138000D01*
%TO.C,R2*%
X130456000Y-90138000D02*
X130786000Y-90138000D01*
X130456000Y-83598000D02*
X130456000Y-90138000D01*
X130786000Y-83598000D02*
X130456000Y-83598000D01*
X133196000Y-90138000D02*
X132866000Y-90138000D01*
X133196000Y-83598000D02*
X133196000Y-90138000D01*
X132866000Y-83598000D02*
X133196000Y-83598000D01*
%TO.C,R3*%
X148304000Y-84428000D02*
X148304000Y-84098000D01*
X141764000Y-84428000D02*
X148304000Y-84428000D01*
X141764000Y-84098000D02*
X141764000Y-84428000D01*
X148304000Y-81688000D02*
X148304000Y-82018000D01*
X141764000Y-81688000D02*
X148304000Y-81688000D01*
X141764000Y-82018000D02*
X141764000Y-81688000D01*
%TO.C,R4*%
X129064000Y-101576000D02*
X129064000Y-101246000D01*
X129064000Y-101246000D02*
X135604000Y-101246000D01*
X135604000Y-101246000D02*
X135604000Y-101576000D01*
X129064000Y-103656000D02*
X129064000Y-103986000D01*
X129064000Y-103986000D02*
X135604000Y-103986000D01*
X135604000Y-103986000D02*
X135604000Y-103656000D01*
%TO.C,R5*%
X154464000Y-93118000D02*
X154464000Y-93448000D01*
X161004000Y-93118000D02*
X154464000Y-93118000D01*
X161004000Y-93448000D02*
X161004000Y-93118000D01*
X154464000Y-95858000D02*
X154464000Y-95528000D01*
X161004000Y-95858000D02*
X154464000Y-95858000D01*
X161004000Y-95528000D02*
X161004000Y-95858000D01*
%TO.C,R6*%
X161004000Y-98068000D02*
X161004000Y-98398000D01*
X161004000Y-98398000D02*
X154464000Y-98398000D01*
X154464000Y-98398000D02*
X154464000Y-98068000D01*
X161004000Y-95988000D02*
X161004000Y-95658000D01*
X161004000Y-95658000D02*
X154464000Y-95658000D01*
X154464000Y-95658000D02*
X154464000Y-95988000D01*
%TO.C,R7*%
X141764000Y-84736000D02*
X141764000Y-85066000D01*
X148304000Y-84736000D02*
X141764000Y-84736000D01*
X148304000Y-85066000D02*
X148304000Y-84736000D01*
X141764000Y-87476000D02*
X141764000Y-87146000D01*
X148304000Y-87476000D02*
X141764000Y-87476000D01*
X148304000Y-87146000D02*
X148304000Y-87476000D01*
%TO.C,R8*%
X129064000Y-97004000D02*
X129064000Y-96674000D01*
X129064000Y-96674000D02*
X135604000Y-96674000D01*
X135604000Y-96674000D02*
X135604000Y-97004000D01*
X129064000Y-99084000D02*
X129064000Y-99414000D01*
X129064000Y-99414000D02*
X135604000Y-99414000D01*
X135604000Y-99414000D02*
X135604000Y-99084000D01*
%TO.C,R9*%
X135604000Y-95096000D02*
X135604000Y-94766000D01*
X129064000Y-95096000D02*
X135604000Y-95096000D01*
X129064000Y-94766000D02*
X129064000Y-95096000D01*
X135604000Y-92356000D02*
X135604000Y-92686000D01*
X129064000Y-92356000D02*
X135604000Y-92356000D01*
X129064000Y-92686000D02*
X129064000Y-92356000D01*
%TO.C,R10*%
X161004000Y-110768000D02*
X161004000Y-111098000D01*
X161004000Y-111098000D02*
X154464000Y-111098000D01*
X154464000Y-111098000D02*
X154464000Y-110768000D01*
X161004000Y-108688000D02*
X161004000Y-108358000D01*
X161004000Y-108358000D02*
X154464000Y-108358000D01*
X154464000Y-108358000D02*
X154464000Y-108688000D01*
%TO.C,R12*%
X158520000Y-100108000D02*
X158850000Y-100108000D01*
X158850000Y-100108000D02*
X158850000Y-106648000D01*
X158850000Y-106648000D02*
X158520000Y-106648000D01*
X156440000Y-100108000D02*
X156110000Y-100108000D01*
X156110000Y-100108000D02*
X156110000Y-106648000D01*
X156110000Y-106648000D02*
X156440000Y-106648000D01*
%TO.C,R13*%
X155472000Y-100108000D02*
X155802000Y-100108000D01*
X155802000Y-100108000D02*
X155802000Y-106648000D01*
X155802000Y-106648000D02*
X155472000Y-106648000D01*
X153392000Y-100108000D02*
X153062000Y-100108000D01*
X153062000Y-100108000D02*
X153062000Y-106648000D01*
X153062000Y-106648000D02*
X153392000Y-106648000D01*
%TO.C,R14*%
X154464000Y-87098000D02*
X154464000Y-86768000D01*
X154464000Y-86768000D02*
X161004000Y-86768000D01*
X161004000Y-86768000D02*
X161004000Y-87098000D01*
X154464000Y-89178000D02*
X154464000Y-89508000D01*
X154464000Y-89508000D02*
X161004000Y-89508000D01*
X161004000Y-89508000D02*
X161004000Y-89178000D01*
%TO.C,R15*%
X135604000Y-106704000D02*
X135604000Y-107034000D01*
X135604000Y-107034000D02*
X129064000Y-107034000D01*
X129064000Y-107034000D02*
X129064000Y-106704000D01*
X135604000Y-104624000D02*
X135604000Y-104294000D01*
X135604000Y-104294000D02*
X129064000Y-104294000D01*
X129064000Y-104294000D02*
X129064000Y-104624000D01*
%TO.C,R16*%
X129064000Y-107342000D02*
X129064000Y-107672000D01*
X135604000Y-107342000D02*
X129064000Y-107342000D01*
X135604000Y-107672000D02*
X135604000Y-107342000D01*
X129064000Y-110082000D02*
X129064000Y-109752000D01*
X135604000Y-110082000D02*
X129064000Y-110082000D01*
X135604000Y-109752000D02*
X135604000Y-110082000D01*
%TO.C,R17*%
X135922000Y-118772000D02*
X135922000Y-119102000D01*
X142462000Y-118772000D02*
X135922000Y-118772000D01*
X142462000Y-119102000D02*
X142462000Y-118772000D01*
X135922000Y-121512000D02*
X135922000Y-121182000D01*
X142462000Y-121512000D02*
X135922000Y-121512000D01*
X142462000Y-121182000D02*
X142462000Y-121512000D01*
%TO.C,R18*%
X161004000Y-119912000D02*
X161004000Y-120242000D01*
X161004000Y-120242000D02*
X154464000Y-120242000D01*
X154464000Y-120242000D02*
X154464000Y-119912000D01*
X161004000Y-117832000D02*
X161004000Y-117502000D01*
X161004000Y-117502000D02*
X154464000Y-117502000D01*
X154464000Y-117502000D02*
X154464000Y-117832000D01*
%TO.C,R19*%
X154464000Y-114454000D02*
X154464000Y-114784000D01*
X161004000Y-114454000D02*
X154464000Y-114454000D01*
X161004000Y-114784000D02*
X161004000Y-114454000D01*
X154464000Y-117194000D02*
X154464000Y-116864000D01*
X161004000Y-117194000D02*
X154464000Y-117194000D01*
X161004000Y-116864000D02*
X161004000Y-117194000D01*
%TO.C,R20*%
X121952000Y-116994000D02*
X121952000Y-117324000D01*
X128492000Y-116994000D02*
X121952000Y-116994000D01*
X128492000Y-117324000D02*
X128492000Y-116994000D01*
X121952000Y-119734000D02*
X121952000Y-119404000D01*
X128492000Y-119734000D02*
X121952000Y-119734000D01*
X128492000Y-119404000D02*
X128492000Y-119734000D01*
%TO.C,R21*%
X122960000Y-121952000D02*
X123290000Y-121952000D01*
X123290000Y-121952000D02*
X123290000Y-128492000D01*
X123290000Y-128492000D02*
X122960000Y-128492000D01*
X120880000Y-121952000D02*
X120550000Y-121952000D01*
X120550000Y-121952000D02*
X120550000Y-128492000D01*
X120550000Y-128492000D02*
X120880000Y-128492000D01*
%TO.C,R22*%
X135922000Y-121820000D02*
X135922000Y-122150000D01*
X142462000Y-121820000D02*
X135922000Y-121820000D01*
X142462000Y-122150000D02*
X142462000Y-121820000D01*
X135922000Y-124560000D02*
X135922000Y-124230000D01*
X142462000Y-124560000D02*
X135922000Y-124560000D01*
X142462000Y-124230000D02*
X142462000Y-124560000D01*
%TO.C,D4*%
X141912000Y-128394000D02*
X141912000Y-128724000D01*
X141912000Y-128724000D02*
X136472000Y-128724000D01*
X136472000Y-128724000D02*
X136472000Y-128394000D01*
X141912000Y-126114000D02*
X141912000Y-125784000D01*
X141912000Y-125784000D02*
X136472000Y-125784000D01*
X136472000Y-125784000D02*
X136472000Y-126114000D01*
X141012000Y-128724000D02*
X141012000Y-125784000D01*
X140892000Y-128724000D02*
X140892000Y-125784000D01*
X141132000Y-128724000D02*
X141132000Y-125784000D01*
%TO.C,D5*%
X115370000Y-113348000D02*
X115370000Y-113528000D01*
X115370000Y-111008000D02*
X115370000Y-111188000D01*
X115250000Y-113348000D02*
X115250000Y-113528000D01*
X115250000Y-111008000D02*
X115250000Y-111188000D01*
X118550000Y-113363000D02*
X118550000Y-113528000D01*
X118550000Y-111008000D02*
X118550000Y-111173000D01*
X115130000Y-113348000D02*
X115130000Y-113528000D01*
X115130000Y-111008000D02*
X115130000Y-111188000D01*
X115130000Y-113528000D02*
X118550000Y-113528000D01*
X115130000Y-111008000D02*
X118550000Y-111008000D01*
%TO.C,J4*%
X169358000Y-108518000D02*
X172018000Y-108518000D01*
X169358000Y-98298000D02*
X169358000Y-108518000D01*
X172018000Y-98298000D02*
X172018000Y-108518000D01*
X169358000Y-98298000D02*
X172018000Y-98298000D01*
X169358000Y-97028000D02*
X169358000Y-95698000D01*
X169358000Y-95698000D02*
X170688000Y-95698000D01*
%TO.C,J5*%
X169358000Y-113478000D02*
X170688000Y-113478000D01*
X169358000Y-114808000D02*
X169358000Y-113478000D01*
X169358000Y-116078000D02*
X172018000Y-116078000D01*
X172018000Y-116078000D02*
X172018000Y-126298000D01*
X169358000Y-116078000D02*
X169358000Y-126298000D01*
X169358000Y-126298000D02*
X172018000Y-126298000D01*
%TO.C,J9*%
X115256000Y-127314000D02*
X117916000Y-127314000D01*
X115256000Y-119634000D02*
X115256000Y-127314000D01*
X117916000Y-119634000D02*
X117916000Y-127314000D01*
X115256000Y-119634000D02*
X117916000Y-119634000D01*
X115256000Y-118364000D02*
X115256000Y-117034000D01*
X115256000Y-117034000D02*
X116586000Y-117034000D01*
%TO.C,J10*%
X121606000Y-102048000D02*
X122936000Y-102048000D01*
X121606000Y-103378000D02*
X121606000Y-102048000D01*
X121606000Y-104648000D02*
X124266000Y-104648000D01*
X124266000Y-104648000D02*
X124266000Y-112328000D01*
X121606000Y-104648000D02*
X121606000Y-112328000D01*
X121606000Y-112328000D02*
X124266000Y-112328000D01*
%TO.C,R23*%
X129064000Y-110390000D02*
X129064000Y-110720000D01*
X135604000Y-110390000D02*
X129064000Y-110390000D01*
X135604000Y-110720000D02*
X135604000Y-110390000D01*
X129064000Y-113130000D02*
X129064000Y-112800000D01*
X135604000Y-113130000D02*
X129064000Y-113130000D01*
X135604000Y-112800000D02*
X135604000Y-113130000D01*
%TO.C,JP1*%
D11*
X162234666Y-79716380D02*
X162234666Y-80430666D01*
X162187047Y-80573523D01*
X162091809Y-80668761D01*
X161948952Y-80716380D01*
X161853714Y-80716380D01*
X162710857Y-80716380D02*
X162710857Y-79716380D01*
X163091809Y-79716380D01*
X163187047Y-79764000D01*
X163234666Y-79811619D01*
X163282285Y-79906857D01*
X163282285Y-80049714D01*
X163234666Y-80144952D01*
X163187047Y-80192571D01*
X163091809Y-80240190D01*
X162710857Y-80240190D01*
X164234666Y-80716380D02*
X163663238Y-80716380D01*
X163948952Y-80716380D02*
X163948952Y-79716380D01*
X163853714Y-79859238D01*
X163758476Y-79954476D01*
X163663238Y-80002095D01*
%TO.C,R11*%
X157091142Y-113228380D02*
X156757809Y-112752190D01*
X156519714Y-113228380D02*
X156519714Y-112228380D01*
X156900666Y-112228380D01*
X156995904Y-112276000D01*
X157043523Y-112323619D01*
X157091142Y-112418857D01*
X157091142Y-112561714D01*
X157043523Y-112656952D01*
X156995904Y-112704571D01*
X156900666Y-112752190D01*
X156519714Y-112752190D01*
X158043523Y-113228380D02*
X157472095Y-113228380D01*
X157757809Y-113228380D02*
X157757809Y-112228380D01*
X157662571Y-112371238D01*
X157567333Y-112466476D01*
X157472095Y-112514095D01*
X158995904Y-113228380D02*
X158424476Y-113228380D01*
X158710190Y-113228380D02*
X158710190Y-112228380D01*
X158614952Y-112371238D01*
X158519714Y-112466476D01*
X158424476Y-112514095D01*
%TO.C,C1*%
X120737333Y-88749142D02*
X120689714Y-88796761D01*
X120546857Y-88844380D01*
X120451619Y-88844380D01*
X120308761Y-88796761D01*
X120213523Y-88701523D01*
X120165904Y-88606285D01*
X120118285Y-88415809D01*
X120118285Y-88272952D01*
X120165904Y-88082476D01*
X120213523Y-87987238D01*
X120308761Y-87892000D01*
X120451619Y-87844380D01*
X120546857Y-87844380D01*
X120689714Y-87892000D01*
X120737333Y-87939619D01*
X121689714Y-88844380D02*
X121118285Y-88844380D01*
X121404000Y-88844380D02*
X121404000Y-87844380D01*
X121308761Y-87987238D01*
X121213523Y-88082476D01*
X121118285Y-88130095D01*
%TO.C,C2*%
X143851333Y-80621142D02*
X143803714Y-80668761D01*
X143660857Y-80716380D01*
X143565619Y-80716380D01*
X143422761Y-80668761D01*
X143327523Y-80573523D01*
X143279904Y-80478285D01*
X143232285Y-80287809D01*
X143232285Y-80144952D01*
X143279904Y-79954476D01*
X143327523Y-79859238D01*
X143422761Y-79764000D01*
X143565619Y-79716380D01*
X143660857Y-79716380D01*
X143803714Y-79764000D01*
X143851333Y-79811619D01*
X144232285Y-79811619D02*
X144279904Y-79764000D01*
X144375142Y-79716380D01*
X144613238Y-79716380D01*
X144708476Y-79764000D01*
X144756095Y-79811619D01*
X144803714Y-79906857D01*
X144803714Y-80002095D01*
X144756095Y-80144952D01*
X144184666Y-80716380D01*
X144803714Y-80716380D01*
%TO.C,C3*%
X119467333Y-84685142D02*
X119419714Y-84732761D01*
X119276857Y-84780380D01*
X119181619Y-84780380D01*
X119038761Y-84732761D01*
X118943523Y-84637523D01*
X118895904Y-84542285D01*
X118848285Y-84351809D01*
X118848285Y-84208952D01*
X118895904Y-84018476D01*
X118943523Y-83923238D01*
X119038761Y-83828000D01*
X119181619Y-83780380D01*
X119276857Y-83780380D01*
X119419714Y-83828000D01*
X119467333Y-83875619D01*
X119800666Y-83780380D02*
X120419714Y-83780380D01*
X120086380Y-84161333D01*
X120229238Y-84161333D01*
X120324476Y-84208952D01*
X120372095Y-84256571D01*
X120419714Y-84351809D01*
X120419714Y-84589904D01*
X120372095Y-84685142D01*
X120324476Y-84732761D01*
X120229238Y-84780380D01*
X119943523Y-84780380D01*
X119848285Y-84732761D01*
X119800666Y-84685142D01*
%TO.C,C4*%
X141057333Y-89257142D02*
X141009714Y-89304761D01*
X140866857Y-89352380D01*
X140771619Y-89352380D01*
X140628761Y-89304761D01*
X140533523Y-89209523D01*
X140485904Y-89114285D01*
X140438285Y-88923809D01*
X140438285Y-88780952D01*
X140485904Y-88590476D01*
X140533523Y-88495238D01*
X140628761Y-88400000D01*
X140771619Y-88352380D01*
X140866857Y-88352380D01*
X141009714Y-88400000D01*
X141057333Y-88447619D01*
X141914476Y-88685714D02*
X141914476Y-89352380D01*
X141676380Y-88304761D02*
X141438285Y-89019047D01*
X142057333Y-89019047D01*
%TO.C,C5*%
X125309333Y-125579142D02*
X125261714Y-125626761D01*
X125118857Y-125674380D01*
X125023619Y-125674380D01*
X124880761Y-125626761D01*
X124785523Y-125531523D01*
X124737904Y-125436285D01*
X124690285Y-125245809D01*
X124690285Y-125102952D01*
X124737904Y-124912476D01*
X124785523Y-124817238D01*
X124880761Y-124722000D01*
X125023619Y-124674380D01*
X125118857Y-124674380D01*
X125261714Y-124722000D01*
X125309333Y-124769619D01*
X126214095Y-124674380D02*
X125737904Y-124674380D01*
X125690285Y-125150571D01*
X125737904Y-125102952D01*
X125833142Y-125055333D01*
X126071238Y-125055333D01*
X126166476Y-125102952D01*
X126214095Y-125150571D01*
X126261714Y-125245809D01*
X126261714Y-125483904D01*
X126214095Y-125579142D01*
X126166476Y-125626761D01*
X126071238Y-125674380D01*
X125833142Y-125674380D01*
X125737904Y-125626761D01*
X125690285Y-125579142D01*
%TO.C,C6*%
X153249333Y-124309142D02*
X153201714Y-124356761D01*
X153058857Y-124404380D01*
X152963619Y-124404380D01*
X152820761Y-124356761D01*
X152725523Y-124261523D01*
X152677904Y-124166285D01*
X152630285Y-123975809D01*
X152630285Y-123832952D01*
X152677904Y-123642476D01*
X152725523Y-123547238D01*
X152820761Y-123452000D01*
X152963619Y-123404380D01*
X153058857Y-123404380D01*
X153201714Y-123452000D01*
X153249333Y-123499619D01*
X154106476Y-123404380D02*
X153916000Y-123404380D01*
X153820761Y-123452000D01*
X153773142Y-123499619D01*
X153677904Y-123642476D01*
X153630285Y-123832952D01*
X153630285Y-124213904D01*
X153677904Y-124309142D01*
X153725523Y-124356761D01*
X153820761Y-124404380D01*
X154011238Y-124404380D01*
X154106476Y-124356761D01*
X154154095Y-124309142D01*
X154201714Y-124213904D01*
X154201714Y-123975809D01*
X154154095Y-123880571D01*
X154106476Y-123832952D01*
X154011238Y-123785333D01*
X153820761Y-123785333D01*
X153725523Y-123832952D01*
X153677904Y-123880571D01*
X153630285Y-123975809D01*
%TO.C,C7*%
X167219333Y-125833142D02*
X167171714Y-125880761D01*
X167028857Y-125928380D01*
X166933619Y-125928380D01*
X166790761Y-125880761D01*
X166695523Y-125785523D01*
X166647904Y-125690285D01*
X166600285Y-125499809D01*
X166600285Y-125356952D01*
X166647904Y-125166476D01*
X166695523Y-125071238D01*
X166790761Y-124976000D01*
X166933619Y-124928380D01*
X167028857Y-124928380D01*
X167171714Y-124976000D01*
X167219333Y-125023619D01*
X167552666Y-124928380D02*
X168219333Y-124928380D01*
X167790761Y-125928380D01*
%TO.C,D1*%
X116101904Y-103068380D02*
X116101904Y-102068380D01*
X116340000Y-102068380D01*
X116482857Y-102116000D01*
X116578095Y-102211238D01*
X116625714Y-102306476D01*
X116673333Y-102496952D01*
X116673333Y-102639809D01*
X116625714Y-102830285D01*
X116578095Y-102925523D01*
X116482857Y-103020761D01*
X116340000Y-103068380D01*
X116101904Y-103068380D01*
X117625714Y-103068380D02*
X117054285Y-103068380D01*
X117340000Y-103068380D02*
X117340000Y-102068380D01*
X117244761Y-102211238D01*
X117149523Y-102306476D01*
X117054285Y-102354095D01*
%TO.C,D2*%
X116101904Y-106370380D02*
X116101904Y-105370380D01*
X116340000Y-105370380D01*
X116482857Y-105418000D01*
X116578095Y-105513238D01*
X116625714Y-105608476D01*
X116673333Y-105798952D01*
X116673333Y-105941809D01*
X116625714Y-106132285D01*
X116578095Y-106227523D01*
X116482857Y-106322761D01*
X116340000Y-106370380D01*
X116101904Y-106370380D01*
X117054285Y-105465619D02*
X117101904Y-105418000D01*
X117197142Y-105370380D01*
X117435238Y-105370380D01*
X117530476Y-105418000D01*
X117578095Y-105465619D01*
X117625714Y-105560857D01*
X117625714Y-105656095D01*
X117578095Y-105798952D01*
X117006666Y-106370380D01*
X117625714Y-106370380D01*
%TO.C,D3*%
X116101904Y-109418380D02*
X116101904Y-108418380D01*
X116340000Y-108418380D01*
X116482857Y-108466000D01*
X116578095Y-108561238D01*
X116625714Y-108656476D01*
X116673333Y-108846952D01*
X116673333Y-108989809D01*
X116625714Y-109180285D01*
X116578095Y-109275523D01*
X116482857Y-109370761D01*
X116340000Y-109418380D01*
X116101904Y-109418380D01*
X117006666Y-108418380D02*
X117625714Y-108418380D01*
X117292380Y-108799333D01*
X117435238Y-108799333D01*
X117530476Y-108846952D01*
X117578095Y-108894571D01*
X117625714Y-108989809D01*
X117625714Y-109227904D01*
X117578095Y-109323142D01*
X117530476Y-109370761D01*
X117435238Y-109418380D01*
X117149523Y-109418380D01*
X117054285Y-109370761D01*
X117006666Y-109323142D01*
%TO.C,J1*%
X125396666Y-75398380D02*
X125396666Y-76112666D01*
X125349047Y-76255523D01*
X125253809Y-76350761D01*
X125110952Y-76398380D01*
X125015714Y-76398380D01*
X126396666Y-76398380D02*
X125825238Y-76398380D01*
X126110952Y-76398380D02*
X126110952Y-75398380D01*
X126015714Y-75541238D01*
X125920476Y-75636476D01*
X125825238Y-75684095D01*
%TO.C,J2*%
X115998666Y-79716380D02*
X115998666Y-80430666D01*
X115951047Y-80573523D01*
X115855809Y-80668761D01*
X115712952Y-80716380D01*
X115617714Y-80716380D01*
X116427238Y-79811619D02*
X116474857Y-79764000D01*
X116570095Y-79716380D01*
X116808190Y-79716380D01*
X116903428Y-79764000D01*
X116951047Y-79811619D01*
X116998666Y-79906857D01*
X116998666Y-80002095D01*
X116951047Y-80144952D01*
X116379619Y-80716380D01*
X116998666Y-80716380D01*
%TO.C,J3*%
X170354666Y-73620380D02*
X170354666Y-74334666D01*
X170307047Y-74477523D01*
X170211809Y-74572761D01*
X170068952Y-74620380D01*
X169973714Y-74620380D01*
X170735619Y-73620380D02*
X171354666Y-73620380D01*
X171021333Y-74001333D01*
X171164190Y-74001333D01*
X171259428Y-74048952D01*
X171307047Y-74096571D01*
X171354666Y-74191809D01*
X171354666Y-74429904D01*
X171307047Y-74525142D01*
X171259428Y-74572761D01*
X171164190Y-74620380D01*
X170878476Y-74620380D01*
X170783238Y-74572761D01*
X170735619Y-74525142D01*
%TO.C,J6*%
X115998666Y-90384380D02*
X115998666Y-91098666D01*
X115951047Y-91241523D01*
X115855809Y-91336761D01*
X115712952Y-91384380D01*
X115617714Y-91384380D01*
X116903428Y-90384380D02*
X116712952Y-90384380D01*
X116617714Y-90432000D01*
X116570095Y-90479619D01*
X116474857Y-90622476D01*
X116427238Y-90812952D01*
X116427238Y-91193904D01*
X116474857Y-91289142D01*
X116522476Y-91336761D01*
X116617714Y-91384380D01*
X116808190Y-91384380D01*
X116903428Y-91336761D01*
X116951047Y-91289142D01*
X116998666Y-91193904D01*
X116998666Y-90955809D01*
X116951047Y-90860571D01*
X116903428Y-90812952D01*
X116808190Y-90765333D01*
X116617714Y-90765333D01*
X116522476Y-90812952D01*
X116474857Y-90860571D01*
X116427238Y-90955809D01*
%TO.C,J7*%
X124888666Y-127976380D02*
X124888666Y-128690666D01*
X124841047Y-128833523D01*
X124745809Y-128928761D01*
X124602952Y-128976380D01*
X124507714Y-128976380D01*
X125269619Y-127976380D02*
X125936285Y-127976380D01*
X125507714Y-128976380D01*
%TO.C,J8*%
X160956666Y-127976380D02*
X160956666Y-128690666D01*
X160909047Y-128833523D01*
X160813809Y-128928761D01*
X160670952Y-128976380D01*
X160575714Y-128976380D01*
X161575714Y-128404952D02*
X161480476Y-128357333D01*
X161432857Y-128309714D01*
X161385238Y-128214476D01*
X161385238Y-128166857D01*
X161432857Y-128071619D01*
X161480476Y-128024000D01*
X161575714Y-127976380D01*
X161766190Y-127976380D01*
X161861428Y-128024000D01*
X161909047Y-128071619D01*
X161956666Y-128166857D01*
X161956666Y-128214476D01*
X161909047Y-128309714D01*
X161861428Y-128357333D01*
X161766190Y-128404952D01*
X161575714Y-128404952D01*
X161480476Y-128452571D01*
X161432857Y-128500190D01*
X161385238Y-128595428D01*
X161385238Y-128785904D01*
X161432857Y-128881142D01*
X161480476Y-128928761D01*
X161575714Y-128976380D01*
X161766190Y-128976380D01*
X161861428Y-128928761D01*
X161909047Y-128881142D01*
X161956666Y-128785904D01*
X161956666Y-128595428D01*
X161909047Y-128500190D01*
X161861428Y-128452571D01*
X161766190Y-128404952D01*
%TO.C,JP2*%
X143692666Y-76160380D02*
X143692666Y-76874666D01*
X143645047Y-77017523D01*
X143549809Y-77112761D01*
X143406952Y-77160380D01*
X143311714Y-77160380D01*
X144168857Y-77160380D02*
X144168857Y-76160380D01*
X144549809Y-76160380D01*
X144645047Y-76208000D01*
X144692666Y-76255619D01*
X144740285Y-76350857D01*
X144740285Y-76493714D01*
X144692666Y-76588952D01*
X144645047Y-76636571D01*
X144549809Y-76684190D01*
X144168857Y-76684190D01*
X145121238Y-76255619D02*
X145168857Y-76208000D01*
X145264095Y-76160380D01*
X145502190Y-76160380D01*
X145597428Y-76208000D01*
X145645047Y-76255619D01*
X145692666Y-76350857D01*
X145692666Y-76446095D01*
X145645047Y-76588952D01*
X145073619Y-77160380D01*
X145692666Y-77160380D01*
%TO.C,JP3*%
X162234666Y-75906380D02*
X162234666Y-76620666D01*
X162187047Y-76763523D01*
X162091809Y-76858761D01*
X161948952Y-76906380D01*
X161853714Y-76906380D01*
X162710857Y-76906380D02*
X162710857Y-75906380D01*
X163091809Y-75906380D01*
X163187047Y-75954000D01*
X163234666Y-76001619D01*
X163282285Y-76096857D01*
X163282285Y-76239714D01*
X163234666Y-76334952D01*
X163187047Y-76382571D01*
X163091809Y-76430190D01*
X162710857Y-76430190D01*
X163615619Y-75906380D02*
X164234666Y-75906380D01*
X163901333Y-76287333D01*
X164044190Y-76287333D01*
X164139428Y-76334952D01*
X164187047Y-76382571D01*
X164234666Y-76477809D01*
X164234666Y-76715904D01*
X164187047Y-76811142D01*
X164139428Y-76858761D01*
X164044190Y-76906380D01*
X163758476Y-76906380D01*
X163663238Y-76858761D01*
X163615619Y-76811142D01*
%TO.C,Q1*%
X121570761Y-94273619D02*
X121475523Y-94226000D01*
X121380285Y-94130761D01*
X121237428Y-93987904D01*
X121142190Y-93940285D01*
X121046952Y-93940285D01*
X121094571Y-94178380D02*
X120999333Y-94130761D01*
X120904095Y-94035523D01*
X120856476Y-93845047D01*
X120856476Y-93511714D01*
X120904095Y-93321238D01*
X120999333Y-93226000D01*
X121094571Y-93178380D01*
X121285047Y-93178380D01*
X121380285Y-93226000D01*
X121475523Y-93321238D01*
X121523142Y-93511714D01*
X121523142Y-93845047D01*
X121475523Y-94035523D01*
X121380285Y-94130761D01*
X121285047Y-94178380D01*
X121094571Y-94178380D01*
X122475523Y-94178380D02*
X121904095Y-94178380D01*
X122189809Y-94178380D02*
X122189809Y-93178380D01*
X122094571Y-93321238D01*
X121999333Y-93416476D01*
X121904095Y-93464095D01*
%TO.C,Q2*%
X152304761Y-121705619D02*
X152209523Y-121658000D01*
X152114285Y-121562761D01*
X151971428Y-121419904D01*
X151876190Y-121372285D01*
X151780952Y-121372285D01*
X151828571Y-121610380D02*
X151733333Y-121562761D01*
X151638095Y-121467523D01*
X151590476Y-121277047D01*
X151590476Y-120943714D01*
X151638095Y-120753238D01*
X151733333Y-120658000D01*
X151828571Y-120610380D01*
X152019047Y-120610380D01*
X152114285Y-120658000D01*
X152209523Y-120753238D01*
X152257142Y-120943714D01*
X152257142Y-121277047D01*
X152209523Y-121467523D01*
X152114285Y-121562761D01*
X152019047Y-121610380D01*
X151828571Y-121610380D01*
X152638095Y-120705619D02*
X152685714Y-120658000D01*
X152780952Y-120610380D01*
X153019047Y-120610380D01*
X153114285Y-120658000D01*
X153161904Y-120705619D01*
X153209523Y-120800857D01*
X153209523Y-120896095D01*
X153161904Y-121038952D01*
X152590476Y-121610380D01*
X153209523Y-121610380D01*
%TO.C,Q3*%
X152304761Y-126785619D02*
X152209523Y-126738000D01*
X152114285Y-126642761D01*
X151971428Y-126499904D01*
X151876190Y-126452285D01*
X151780952Y-126452285D01*
X151828571Y-126690380D02*
X151733333Y-126642761D01*
X151638095Y-126547523D01*
X151590476Y-126357047D01*
X151590476Y-126023714D01*
X151638095Y-125833238D01*
X151733333Y-125738000D01*
X151828571Y-125690380D01*
X152019047Y-125690380D01*
X152114285Y-125738000D01*
X152209523Y-125833238D01*
X152257142Y-126023714D01*
X152257142Y-126357047D01*
X152209523Y-126547523D01*
X152114285Y-126642761D01*
X152019047Y-126690380D01*
X151828571Y-126690380D01*
X152590476Y-125690380D02*
X153209523Y-125690380D01*
X152876190Y-126071333D01*
X153019047Y-126071333D01*
X153114285Y-126118952D01*
X153161904Y-126166571D01*
X153209523Y-126261809D01*
X153209523Y-126499904D01*
X153161904Y-126595142D01*
X153114285Y-126642761D01*
X153019047Y-126690380D01*
X152733333Y-126690380D01*
X152638095Y-126642761D01*
X152590476Y-126595142D01*
%TO.C,U1*%
X144272095Y-93940380D02*
X144272095Y-94749904D01*
X144319714Y-94845142D01*
X144367333Y-94892761D01*
X144462571Y-94940380D01*
X144653047Y-94940380D01*
X144748285Y-94892761D01*
X144795904Y-94845142D01*
X144843523Y-94749904D01*
X144843523Y-93940380D01*
X145843523Y-94940380D02*
X145272095Y-94940380D01*
X145557809Y-94940380D02*
X145557809Y-93940380D01*
X145462571Y-94083238D01*
X145367333Y-94178476D01*
X145272095Y-94226095D01*
%TO.C,R1*%
X128976380Y-87034666D02*
X128500190Y-87368000D01*
X128976380Y-87606095D02*
X127976380Y-87606095D01*
X127976380Y-87225142D01*
X128024000Y-87129904D01*
X128071619Y-87082285D01*
X128166857Y-87034666D01*
X128309714Y-87034666D01*
X128404952Y-87082285D01*
X128452571Y-87129904D01*
X128500190Y-87225142D01*
X128500190Y-87606095D01*
X128976380Y-86082285D02*
X128976380Y-86653714D01*
X128976380Y-86368000D02*
X127976380Y-86368000D01*
X128119238Y-86463238D01*
X128214476Y-86558476D01*
X128262095Y-86653714D01*
%TO.C,R2*%
X132278380Y-87034666D02*
X131802190Y-87368000D01*
X132278380Y-87606095D02*
X131278380Y-87606095D01*
X131278380Y-87225142D01*
X131326000Y-87129904D01*
X131373619Y-87082285D01*
X131468857Y-87034666D01*
X131611714Y-87034666D01*
X131706952Y-87082285D01*
X131754571Y-87129904D01*
X131802190Y-87225142D01*
X131802190Y-87606095D01*
X131373619Y-86653714D02*
X131326000Y-86606095D01*
X131278380Y-86510857D01*
X131278380Y-86272761D01*
X131326000Y-86177523D01*
X131373619Y-86129904D01*
X131468857Y-86082285D01*
X131564095Y-86082285D01*
X131706952Y-86129904D01*
X132278380Y-86701333D01*
X132278380Y-86082285D01*
%TO.C,R3*%
X144867333Y-83256380D02*
X144534000Y-82780190D01*
X144295904Y-83256380D02*
X144295904Y-82256380D01*
X144676857Y-82256380D01*
X144772095Y-82304000D01*
X144819714Y-82351619D01*
X144867333Y-82446857D01*
X144867333Y-82589714D01*
X144819714Y-82684952D01*
X144772095Y-82732571D01*
X144676857Y-82780190D01*
X144295904Y-82780190D01*
X145200666Y-82256380D02*
X145819714Y-82256380D01*
X145486380Y-82637333D01*
X145629238Y-82637333D01*
X145724476Y-82684952D01*
X145772095Y-82732571D01*
X145819714Y-82827809D01*
X145819714Y-83065904D01*
X145772095Y-83161142D01*
X145724476Y-83208761D01*
X145629238Y-83256380D01*
X145343523Y-83256380D01*
X145248285Y-83208761D01*
X145200666Y-83161142D01*
%TO.C,R4*%
X132167333Y-103068380D02*
X131834000Y-102592190D01*
X131595904Y-103068380D02*
X131595904Y-102068380D01*
X131976857Y-102068380D01*
X132072095Y-102116000D01*
X132119714Y-102163619D01*
X132167333Y-102258857D01*
X132167333Y-102401714D01*
X132119714Y-102496952D01*
X132072095Y-102544571D01*
X131976857Y-102592190D01*
X131595904Y-102592190D01*
X133024476Y-102401714D02*
X133024476Y-103068380D01*
X132786380Y-102020761D02*
X132548285Y-102735047D01*
X133167333Y-102735047D01*
%TO.C,R5*%
X157567333Y-94940380D02*
X157234000Y-94464190D01*
X156995904Y-94940380D02*
X156995904Y-93940380D01*
X157376857Y-93940380D01*
X157472095Y-93988000D01*
X157519714Y-94035619D01*
X157567333Y-94130857D01*
X157567333Y-94273714D01*
X157519714Y-94368952D01*
X157472095Y-94416571D01*
X157376857Y-94464190D01*
X156995904Y-94464190D01*
X158472095Y-93940380D02*
X157995904Y-93940380D01*
X157948285Y-94416571D01*
X157995904Y-94368952D01*
X158091142Y-94321333D01*
X158329238Y-94321333D01*
X158424476Y-94368952D01*
X158472095Y-94416571D01*
X158519714Y-94511809D01*
X158519714Y-94749904D01*
X158472095Y-94845142D01*
X158424476Y-94892761D01*
X158329238Y-94940380D01*
X158091142Y-94940380D01*
X157995904Y-94892761D01*
X157948285Y-94845142D01*
%TO.C,R6*%
X157567333Y-97734380D02*
X157234000Y-97258190D01*
X156995904Y-97734380D02*
X156995904Y-96734380D01*
X157376857Y-96734380D01*
X157472095Y-96782000D01*
X157519714Y-96829619D01*
X157567333Y-96924857D01*
X157567333Y-97067714D01*
X157519714Y-97162952D01*
X157472095Y-97210571D01*
X157376857Y-97258190D01*
X156995904Y-97258190D01*
X158424476Y-96734380D02*
X158234000Y-96734380D01*
X158138761Y-96782000D01*
X158091142Y-96829619D01*
X157995904Y-96972476D01*
X157948285Y-97162952D01*
X157948285Y-97543904D01*
X157995904Y-97639142D01*
X158043523Y-97686761D01*
X158138761Y-97734380D01*
X158329238Y-97734380D01*
X158424476Y-97686761D01*
X158472095Y-97639142D01*
X158519714Y-97543904D01*
X158519714Y-97305809D01*
X158472095Y-97210571D01*
X158424476Y-97162952D01*
X158329238Y-97115333D01*
X158138761Y-97115333D01*
X158043523Y-97162952D01*
X157995904Y-97210571D01*
X157948285Y-97305809D01*
%TO.C,R7*%
X144867333Y-86558380D02*
X144534000Y-86082190D01*
X144295904Y-86558380D02*
X144295904Y-85558380D01*
X144676857Y-85558380D01*
X144772095Y-85606000D01*
X144819714Y-85653619D01*
X144867333Y-85748857D01*
X144867333Y-85891714D01*
X144819714Y-85986952D01*
X144772095Y-86034571D01*
X144676857Y-86082190D01*
X144295904Y-86082190D01*
X145200666Y-85558380D02*
X145867333Y-85558380D01*
X145438761Y-86558380D01*
%TO.C,R8*%
X132167333Y-98496380D02*
X131834000Y-98020190D01*
X131595904Y-98496380D02*
X131595904Y-97496380D01*
X131976857Y-97496380D01*
X132072095Y-97544000D01*
X132119714Y-97591619D01*
X132167333Y-97686857D01*
X132167333Y-97829714D01*
X132119714Y-97924952D01*
X132072095Y-97972571D01*
X131976857Y-98020190D01*
X131595904Y-98020190D01*
X132738761Y-97924952D02*
X132643523Y-97877333D01*
X132595904Y-97829714D01*
X132548285Y-97734476D01*
X132548285Y-97686857D01*
X132595904Y-97591619D01*
X132643523Y-97544000D01*
X132738761Y-97496380D01*
X132929238Y-97496380D01*
X133024476Y-97544000D01*
X133072095Y-97591619D01*
X133119714Y-97686857D01*
X133119714Y-97734476D01*
X133072095Y-97829714D01*
X133024476Y-97877333D01*
X132929238Y-97924952D01*
X132738761Y-97924952D01*
X132643523Y-97972571D01*
X132595904Y-98020190D01*
X132548285Y-98115428D01*
X132548285Y-98305904D01*
X132595904Y-98401142D01*
X132643523Y-98448761D01*
X132738761Y-98496380D01*
X132929238Y-98496380D01*
X133024476Y-98448761D01*
X133072095Y-98401142D01*
X133119714Y-98305904D01*
X133119714Y-98115428D01*
X133072095Y-98020190D01*
X133024476Y-97972571D01*
X132929238Y-97924952D01*
%TO.C,R9*%
X132167333Y-94178380D02*
X131834000Y-93702190D01*
X131595904Y-94178380D02*
X131595904Y-93178380D01*
X131976857Y-93178380D01*
X132072095Y-93226000D01*
X132119714Y-93273619D01*
X132167333Y-93368857D01*
X132167333Y-93511714D01*
X132119714Y-93606952D01*
X132072095Y-93654571D01*
X131976857Y-93702190D01*
X131595904Y-93702190D01*
X132643523Y-94178380D02*
X132834000Y-94178380D01*
X132929238Y-94130761D01*
X132976857Y-94083142D01*
X133072095Y-93940285D01*
X133119714Y-93749809D01*
X133119714Y-93368857D01*
X133072095Y-93273619D01*
X133024476Y-93226000D01*
X132929238Y-93178380D01*
X132738761Y-93178380D01*
X132643523Y-93226000D01*
X132595904Y-93273619D01*
X132548285Y-93368857D01*
X132548285Y-93606952D01*
X132595904Y-93702190D01*
X132643523Y-93749809D01*
X132738761Y-93797428D01*
X132929238Y-93797428D01*
X133024476Y-93749809D01*
X133072095Y-93702190D01*
X133119714Y-93606952D01*
%TO.C,R10*%
X157091142Y-110180380D02*
X156757809Y-109704190D01*
X156519714Y-110180380D02*
X156519714Y-109180380D01*
X156900666Y-109180380D01*
X156995904Y-109228000D01*
X157043523Y-109275619D01*
X157091142Y-109370857D01*
X157091142Y-109513714D01*
X157043523Y-109608952D01*
X156995904Y-109656571D01*
X156900666Y-109704190D01*
X156519714Y-109704190D01*
X158043523Y-110180380D02*
X157472095Y-110180380D01*
X157757809Y-110180380D02*
X157757809Y-109180380D01*
X157662571Y-109323238D01*
X157567333Y-109418476D01*
X157472095Y-109466095D01*
X158662571Y-109180380D02*
X158757809Y-109180380D01*
X158853047Y-109228000D01*
X158900666Y-109275619D01*
X158948285Y-109370857D01*
X158995904Y-109561333D01*
X158995904Y-109799428D01*
X158948285Y-109989904D01*
X158900666Y-110085142D01*
X158853047Y-110132761D01*
X158757809Y-110180380D01*
X158662571Y-110180380D01*
X158567333Y-110132761D01*
X158519714Y-110085142D01*
X158472095Y-109989904D01*
X158424476Y-109799428D01*
X158424476Y-109561333D01*
X158472095Y-109370857D01*
X158519714Y-109275619D01*
X158567333Y-109228000D01*
X158662571Y-109180380D01*
%TO.C,R12*%
X157932380Y-103766857D02*
X157456190Y-104100190D01*
X157932380Y-104338285D02*
X156932380Y-104338285D01*
X156932380Y-103957333D01*
X156980000Y-103862095D01*
X157027619Y-103814476D01*
X157122857Y-103766857D01*
X157265714Y-103766857D01*
X157360952Y-103814476D01*
X157408571Y-103862095D01*
X157456190Y-103957333D01*
X157456190Y-104338285D01*
X157932380Y-102814476D02*
X157932380Y-103385904D01*
X157932380Y-103100190D02*
X156932380Y-103100190D01*
X157075238Y-103195428D01*
X157170476Y-103290666D01*
X157218095Y-103385904D01*
X157027619Y-102433523D02*
X156980000Y-102385904D01*
X156932380Y-102290666D01*
X156932380Y-102052571D01*
X156980000Y-101957333D01*
X157027619Y-101909714D01*
X157122857Y-101862095D01*
X157218095Y-101862095D01*
X157360952Y-101909714D01*
X157932380Y-102481142D01*
X157932380Y-101862095D01*
%TO.C,R13*%
X154884380Y-103766857D02*
X154408190Y-104100190D01*
X154884380Y-104338285D02*
X153884380Y-104338285D01*
X153884380Y-103957333D01*
X153932000Y-103862095D01*
X153979619Y-103814476D01*
X154074857Y-103766857D01*
X154217714Y-103766857D01*
X154312952Y-103814476D01*
X154360571Y-103862095D01*
X154408190Y-103957333D01*
X154408190Y-104338285D01*
X154884380Y-102814476D02*
X154884380Y-103385904D01*
X154884380Y-103100190D02*
X153884380Y-103100190D01*
X154027238Y-103195428D01*
X154122476Y-103290666D01*
X154170095Y-103385904D01*
X153884380Y-102481142D02*
X153884380Y-101862095D01*
X154265333Y-102195428D01*
X154265333Y-102052571D01*
X154312952Y-101957333D01*
X154360571Y-101909714D01*
X154455809Y-101862095D01*
X154693904Y-101862095D01*
X154789142Y-101909714D01*
X154836761Y-101957333D01*
X154884380Y-102052571D01*
X154884380Y-102338285D01*
X154836761Y-102433523D01*
X154789142Y-102481142D01*
%TO.C,R14*%
X157091142Y-88590380D02*
X156757809Y-88114190D01*
X156519714Y-88590380D02*
X156519714Y-87590380D01*
X156900666Y-87590380D01*
X156995904Y-87638000D01*
X157043523Y-87685619D01*
X157091142Y-87780857D01*
X157091142Y-87923714D01*
X157043523Y-88018952D01*
X156995904Y-88066571D01*
X156900666Y-88114190D01*
X156519714Y-88114190D01*
X158043523Y-88590380D02*
X157472095Y-88590380D01*
X157757809Y-88590380D02*
X157757809Y-87590380D01*
X157662571Y-87733238D01*
X157567333Y-87828476D01*
X157472095Y-87876095D01*
X158900666Y-87923714D02*
X158900666Y-88590380D01*
X158662571Y-87542761D02*
X158424476Y-88257047D01*
X159043523Y-88257047D01*
%TO.C,R15*%
X131691142Y-106116380D02*
X131357809Y-105640190D01*
X131119714Y-106116380D02*
X131119714Y-105116380D01*
X131500666Y-105116380D01*
X131595904Y-105164000D01*
X131643523Y-105211619D01*
X131691142Y-105306857D01*
X131691142Y-105449714D01*
X131643523Y-105544952D01*
X131595904Y-105592571D01*
X131500666Y-105640190D01*
X131119714Y-105640190D01*
X132643523Y-106116380D02*
X132072095Y-106116380D01*
X132357809Y-106116380D02*
X132357809Y-105116380D01*
X132262571Y-105259238D01*
X132167333Y-105354476D01*
X132072095Y-105402095D01*
X133548285Y-105116380D02*
X133072095Y-105116380D01*
X133024476Y-105592571D01*
X133072095Y-105544952D01*
X133167333Y-105497333D01*
X133405428Y-105497333D01*
X133500666Y-105544952D01*
X133548285Y-105592571D01*
X133595904Y-105687809D01*
X133595904Y-105925904D01*
X133548285Y-106021142D01*
X133500666Y-106068761D01*
X133405428Y-106116380D01*
X133167333Y-106116380D01*
X133072095Y-106068761D01*
X133024476Y-106021142D01*
%TO.C,R16*%
X131691142Y-109164380D02*
X131357809Y-108688190D01*
X131119714Y-109164380D02*
X131119714Y-108164380D01*
X131500666Y-108164380D01*
X131595904Y-108212000D01*
X131643523Y-108259619D01*
X131691142Y-108354857D01*
X131691142Y-108497714D01*
X131643523Y-108592952D01*
X131595904Y-108640571D01*
X131500666Y-108688190D01*
X131119714Y-108688190D01*
X132643523Y-109164380D02*
X132072095Y-109164380D01*
X132357809Y-109164380D02*
X132357809Y-108164380D01*
X132262571Y-108307238D01*
X132167333Y-108402476D01*
X132072095Y-108450095D01*
X133500666Y-108164380D02*
X133310190Y-108164380D01*
X133214952Y-108212000D01*
X133167333Y-108259619D01*
X133072095Y-108402476D01*
X133024476Y-108592952D01*
X133024476Y-108973904D01*
X133072095Y-109069142D01*
X133119714Y-109116761D01*
X133214952Y-109164380D01*
X133405428Y-109164380D01*
X133500666Y-109116761D01*
X133548285Y-109069142D01*
X133595904Y-108973904D01*
X133595904Y-108735809D01*
X133548285Y-108640571D01*
X133500666Y-108592952D01*
X133405428Y-108545333D01*
X133214952Y-108545333D01*
X133119714Y-108592952D01*
X133072095Y-108640571D01*
X133024476Y-108735809D01*
%TO.C,R17*%
X138295142Y-120594380D02*
X137961809Y-120118190D01*
X137723714Y-120594380D02*
X137723714Y-119594380D01*
X138104666Y-119594380D01*
X138199904Y-119642000D01*
X138247523Y-119689619D01*
X138295142Y-119784857D01*
X138295142Y-119927714D01*
X138247523Y-120022952D01*
X138199904Y-120070571D01*
X138104666Y-120118190D01*
X137723714Y-120118190D01*
X139247523Y-120594380D02*
X138676095Y-120594380D01*
X138961809Y-120594380D02*
X138961809Y-119594380D01*
X138866571Y-119737238D01*
X138771333Y-119832476D01*
X138676095Y-119880095D01*
X139580857Y-119594380D02*
X140247523Y-119594380D01*
X139818952Y-120594380D01*
%TO.C,R18*%
X157091142Y-119324380D02*
X156757809Y-118848190D01*
X156519714Y-119324380D02*
X156519714Y-118324380D01*
X156900666Y-118324380D01*
X156995904Y-118372000D01*
X157043523Y-118419619D01*
X157091142Y-118514857D01*
X157091142Y-118657714D01*
X157043523Y-118752952D01*
X156995904Y-118800571D01*
X156900666Y-118848190D01*
X156519714Y-118848190D01*
X158043523Y-119324380D02*
X157472095Y-119324380D01*
X157757809Y-119324380D02*
X157757809Y-118324380D01*
X157662571Y-118467238D01*
X157567333Y-118562476D01*
X157472095Y-118610095D01*
X158614952Y-118752952D02*
X158519714Y-118705333D01*
X158472095Y-118657714D01*
X158424476Y-118562476D01*
X158424476Y-118514857D01*
X158472095Y-118419619D01*
X158519714Y-118372000D01*
X158614952Y-118324380D01*
X158805428Y-118324380D01*
X158900666Y-118372000D01*
X158948285Y-118419619D01*
X158995904Y-118514857D01*
X158995904Y-118562476D01*
X158948285Y-118657714D01*
X158900666Y-118705333D01*
X158805428Y-118752952D01*
X158614952Y-118752952D01*
X158519714Y-118800571D01*
X158472095Y-118848190D01*
X158424476Y-118943428D01*
X158424476Y-119133904D01*
X158472095Y-119229142D01*
X158519714Y-119276761D01*
X158614952Y-119324380D01*
X158805428Y-119324380D01*
X158900666Y-119276761D01*
X158948285Y-119229142D01*
X158995904Y-119133904D01*
X158995904Y-118943428D01*
X158948285Y-118848190D01*
X158900666Y-118800571D01*
X158805428Y-118752952D01*
%TO.C,R19*%
X157091142Y-116276380D02*
X156757809Y-115800190D01*
X156519714Y-116276380D02*
X156519714Y-115276380D01*
X156900666Y-115276380D01*
X156995904Y-115324000D01*
X157043523Y-115371619D01*
X157091142Y-115466857D01*
X157091142Y-115609714D01*
X157043523Y-115704952D01*
X156995904Y-115752571D01*
X156900666Y-115800190D01*
X156519714Y-115800190D01*
X158043523Y-116276380D02*
X157472095Y-116276380D01*
X157757809Y-116276380D02*
X157757809Y-115276380D01*
X157662571Y-115419238D01*
X157567333Y-115514476D01*
X157472095Y-115562095D01*
X158519714Y-116276380D02*
X158710190Y-116276380D01*
X158805428Y-116228761D01*
X158853047Y-116181142D01*
X158948285Y-116038285D01*
X158995904Y-115847809D01*
X158995904Y-115466857D01*
X158948285Y-115371619D01*
X158900666Y-115324000D01*
X158805428Y-115276380D01*
X158614952Y-115276380D01*
X158519714Y-115324000D01*
X158472095Y-115371619D01*
X158424476Y-115466857D01*
X158424476Y-115704952D01*
X158472095Y-115800190D01*
X158519714Y-115847809D01*
X158614952Y-115895428D01*
X158805428Y-115895428D01*
X158900666Y-115847809D01*
X158948285Y-115800190D01*
X158995904Y-115704952D01*
%TO.C,R20*%
X124579142Y-118816380D02*
X124245809Y-118340190D01*
X124007714Y-118816380D02*
X124007714Y-117816380D01*
X124388666Y-117816380D01*
X124483904Y-117864000D01*
X124531523Y-117911619D01*
X124579142Y-118006857D01*
X124579142Y-118149714D01*
X124531523Y-118244952D01*
X124483904Y-118292571D01*
X124388666Y-118340190D01*
X124007714Y-118340190D01*
X124960095Y-117911619D02*
X125007714Y-117864000D01*
X125102952Y-117816380D01*
X125341047Y-117816380D01*
X125436285Y-117864000D01*
X125483904Y-117911619D01*
X125531523Y-118006857D01*
X125531523Y-118102095D01*
X125483904Y-118244952D01*
X124912476Y-118816380D01*
X125531523Y-118816380D01*
X126150571Y-117816380D02*
X126245809Y-117816380D01*
X126341047Y-117864000D01*
X126388666Y-117911619D01*
X126436285Y-118006857D01*
X126483904Y-118197333D01*
X126483904Y-118435428D01*
X126436285Y-118625904D01*
X126388666Y-118721142D01*
X126341047Y-118768761D01*
X126245809Y-118816380D01*
X126150571Y-118816380D01*
X126055333Y-118768761D01*
X126007714Y-118721142D01*
X125960095Y-118625904D01*
X125912476Y-118435428D01*
X125912476Y-118197333D01*
X125960095Y-118006857D01*
X126007714Y-117911619D01*
X126055333Y-117864000D01*
X126150571Y-117816380D01*
%TO.C,R21*%
X122372380Y-125610857D02*
X121896190Y-125944190D01*
X122372380Y-126182285D02*
X121372380Y-126182285D01*
X121372380Y-125801333D01*
X121420000Y-125706095D01*
X121467619Y-125658476D01*
X121562857Y-125610857D01*
X121705714Y-125610857D01*
X121800952Y-125658476D01*
X121848571Y-125706095D01*
X121896190Y-125801333D01*
X121896190Y-126182285D01*
X121467619Y-125229904D02*
X121420000Y-125182285D01*
X121372380Y-125087047D01*
X121372380Y-124848952D01*
X121420000Y-124753714D01*
X121467619Y-124706095D01*
X121562857Y-124658476D01*
X121658095Y-124658476D01*
X121800952Y-124706095D01*
X122372380Y-125277523D01*
X122372380Y-124658476D01*
X122372380Y-123706095D02*
X122372380Y-124277523D01*
X122372380Y-123991809D02*
X121372380Y-123991809D01*
X121515238Y-124087047D01*
X121610476Y-124182285D01*
X121658095Y-124277523D01*
%TO.C,R22*%
X138295142Y-123642380D02*
X137961809Y-123166190D01*
X137723714Y-123642380D02*
X137723714Y-122642380D01*
X138104666Y-122642380D01*
X138199904Y-122690000D01*
X138247523Y-122737619D01*
X138295142Y-122832857D01*
X138295142Y-122975714D01*
X138247523Y-123070952D01*
X138199904Y-123118571D01*
X138104666Y-123166190D01*
X137723714Y-123166190D01*
X138676095Y-122737619D02*
X138723714Y-122690000D01*
X138818952Y-122642380D01*
X139057047Y-122642380D01*
X139152285Y-122690000D01*
X139199904Y-122737619D01*
X139247523Y-122832857D01*
X139247523Y-122928095D01*
X139199904Y-123070952D01*
X138628476Y-123642380D01*
X139247523Y-123642380D01*
X139628476Y-122737619D02*
X139676095Y-122690000D01*
X139771333Y-122642380D01*
X140009428Y-122642380D01*
X140104666Y-122690000D01*
X140152285Y-122737619D01*
X140199904Y-122832857D01*
X140199904Y-122928095D01*
X140152285Y-123070952D01*
X139580857Y-123642380D01*
X140199904Y-123642380D01*
%TO.C,D4*%
X138199904Y-127706380D02*
X138199904Y-126706380D01*
X138438000Y-126706380D01*
X138580857Y-126754000D01*
X138676095Y-126849238D01*
X138723714Y-126944476D01*
X138771333Y-127134952D01*
X138771333Y-127277809D01*
X138723714Y-127468285D01*
X138676095Y-127563523D01*
X138580857Y-127658761D01*
X138438000Y-127706380D01*
X138199904Y-127706380D01*
X139628476Y-127039714D02*
X139628476Y-127706380D01*
X139390380Y-126658761D02*
X139152285Y-127373047D01*
X139771333Y-127373047D01*
X142740095Y-127706380D02*
X142740095Y-126706380D01*
X143311523Y-127706380D02*
X142882952Y-127134952D01*
X143311523Y-126706380D02*
X142740095Y-127277809D01*
%TO.C,D5*%
X116101904Y-112720380D02*
X116101904Y-111720380D01*
X116340000Y-111720380D01*
X116482857Y-111768000D01*
X116578095Y-111863238D01*
X116625714Y-111958476D01*
X116673333Y-112148952D01*
X116673333Y-112291809D01*
X116625714Y-112482285D01*
X116578095Y-112577523D01*
X116482857Y-112672761D01*
X116340000Y-112720380D01*
X116101904Y-112720380D01*
X117578095Y-111720380D02*
X117101904Y-111720380D01*
X117054285Y-112196571D01*
X117101904Y-112148952D01*
X117197142Y-112101333D01*
X117435238Y-112101333D01*
X117530476Y-112148952D01*
X117578095Y-112196571D01*
X117625714Y-112291809D01*
X117625714Y-112529904D01*
X117578095Y-112625142D01*
X117530476Y-112672761D01*
X117435238Y-112720380D01*
X117197142Y-112720380D01*
X117101904Y-112672761D01*
X117054285Y-112625142D01*
%TO.C,J4*%
X170354666Y-93940380D02*
X170354666Y-94654666D01*
X170307047Y-94797523D01*
X170211809Y-94892761D01*
X170068952Y-94940380D01*
X169973714Y-94940380D01*
X171259428Y-94273714D02*
X171259428Y-94940380D01*
X171021333Y-93892761D02*
X170783238Y-94607047D01*
X171402285Y-94607047D01*
%TO.C,J5*%
X170354666Y-111720380D02*
X170354666Y-112434666D01*
X170307047Y-112577523D01*
X170211809Y-112672761D01*
X170068952Y-112720380D01*
X169973714Y-112720380D01*
X171307047Y-111720380D02*
X170830857Y-111720380D01*
X170783238Y-112196571D01*
X170830857Y-112148952D01*
X170926095Y-112101333D01*
X171164190Y-112101333D01*
X171259428Y-112148952D01*
X171307047Y-112196571D01*
X171354666Y-112291809D01*
X171354666Y-112529904D01*
X171307047Y-112625142D01*
X171259428Y-112672761D01*
X171164190Y-112720380D01*
X170926095Y-112720380D01*
X170830857Y-112672761D01*
X170783238Y-112625142D01*
%TO.C,J9*%
X116252666Y-115276380D02*
X116252666Y-115990666D01*
X116205047Y-116133523D01*
X116109809Y-116228761D01*
X115966952Y-116276380D01*
X115871714Y-116276380D01*
X116776476Y-116276380D02*
X116966952Y-116276380D01*
X117062190Y-116228761D01*
X117109809Y-116181142D01*
X117205047Y-116038285D01*
X117252666Y-115847809D01*
X117252666Y-115466857D01*
X117205047Y-115371619D01*
X117157428Y-115324000D01*
X117062190Y-115276380D01*
X116871714Y-115276380D01*
X116776476Y-115324000D01*
X116728857Y-115371619D01*
X116681238Y-115466857D01*
X116681238Y-115704952D01*
X116728857Y-115800190D01*
X116776476Y-115847809D01*
X116871714Y-115895428D01*
X117062190Y-115895428D01*
X117157428Y-115847809D01*
X117205047Y-115800190D01*
X117252666Y-115704952D01*
%TO.C,J10*%
X121872476Y-100290380D02*
X121872476Y-101004666D01*
X121824857Y-101147523D01*
X121729619Y-101242761D01*
X121586761Y-101290380D01*
X121491523Y-101290380D01*
X122872476Y-101290380D02*
X122301047Y-101290380D01*
X122586761Y-101290380D02*
X122586761Y-100290380D01*
X122491523Y-100433238D01*
X122396285Y-100528476D01*
X122301047Y-100576095D01*
X123491523Y-100290380D02*
X123586761Y-100290380D01*
X123682000Y-100338000D01*
X123729619Y-100385619D01*
X123777238Y-100480857D01*
X123824857Y-100671333D01*
X123824857Y-100909428D01*
X123777238Y-101099904D01*
X123729619Y-101195142D01*
X123682000Y-101242761D01*
X123586761Y-101290380D01*
X123491523Y-101290380D01*
X123396285Y-101242761D01*
X123348666Y-101195142D01*
X123301047Y-101099904D01*
X123253428Y-100909428D01*
X123253428Y-100671333D01*
X123301047Y-100480857D01*
X123348666Y-100385619D01*
X123396285Y-100338000D01*
X123491523Y-100290380D01*
%TO.C,R23*%
X131437142Y-112212380D02*
X131103809Y-111736190D01*
X130865714Y-112212380D02*
X130865714Y-111212380D01*
X131246666Y-111212380D01*
X131341904Y-111260000D01*
X131389523Y-111307619D01*
X131437142Y-111402857D01*
X131437142Y-111545714D01*
X131389523Y-111640952D01*
X131341904Y-111688571D01*
X131246666Y-111736190D01*
X130865714Y-111736190D01*
X131818095Y-111307619D02*
X131865714Y-111260000D01*
X131960952Y-111212380D01*
X132199047Y-111212380D01*
X132294285Y-111260000D01*
X132341904Y-111307619D01*
X132389523Y-111402857D01*
X132389523Y-111498095D01*
X132341904Y-111640952D01*
X131770476Y-112212380D01*
X132389523Y-112212380D01*
X132722857Y-111212380D02*
X133341904Y-111212380D01*
X133008571Y-111593333D01*
X133151428Y-111593333D01*
X133246666Y-111640952D01*
X133294285Y-111688571D01*
X133341904Y-111783809D01*
X133341904Y-112021904D01*
X133294285Y-112117142D01*
X133246666Y-112164761D01*
X133151428Y-112212380D01*
X132865714Y-112212380D01*
X132770476Y-112164761D01*
X132722857Y-112117142D01*
%TD*%
M02*
