M48
; DRILL file {KiCad (5.1.6)-1} date 07/01/20 11:52:40
; FORMAT={-:-/ absolute / metric / decimal}
; #@! TF.CreationDate,2020-07-01T11:52:40+01:00
; #@! TF.GenerationSoftware,Kicad,Pcbnew,(5.1.6)-1
; #@! TF.FileFunction,Plated,1,2,PTH
FMAT,2
METRIC
T1C0.400
T2C0.750
T3C0.800
T4C0.900
T5C1.000
%
G90
G05
T1
X133.858Y-83.058
X161.544Y-104.648
X166.116Y-104.648
X167.386Y-87.63
X167.386Y-97.028
X167.386Y-99.568
X167.386Y-116.586
X168.656Y-84.328
X168.656Y-94.488
X168.656Y-97.028
X168.656Y-114.808
T2
X123.444Y-96.012
X123.444Y-97.282
X123.444Y-98.552
X149.352Y-118.872
X149.352Y-120.142
X149.352Y-121.412
X149.352Y-124.714
X149.352Y-125.984
X149.352Y-127.254
T3
X121.412Y-118.364
X129.032Y-118.364
X153.924Y-115.824
X161.544Y-115.824
X128.524Y-102.616
X136.144Y-102.616
X153.924Y-88.138
X161.544Y-88.138
X123.444Y-88.178
X123.444Y-90.678
X153.924Y-118.872
X161.544Y-118.872
X157.48Y-99.568
X157.48Y-107.188
X121.92Y-121.412
X121.92Y-129.032
X131.826Y-83.058
X131.826Y-90.678
X153.924Y-109.728
X161.544Y-109.728
X141.224Y-86.106
X148.844Y-86.106
X128.524Y-111.76
X136.144Y-111.76
X141.224Y-91.948
X141.224Y-94.488
X141.224Y-97.028
X141.224Y-99.568
X141.224Y-102.108
X141.224Y-104.648
X141.224Y-107.188
X141.224Y-109.728
X141.224Y-112.268
X141.224Y-114.808
X148.844Y-91.948
X148.844Y-94.488
X148.844Y-97.028
X148.844Y-99.568
X148.844Y-102.108
X148.844Y-104.648
X148.844Y-107.188
X148.844Y-109.728
X148.844Y-112.268
X148.844Y-114.808
X155.956Y-123.952
X158.456Y-123.952
X135.382Y-120.142
X143.002Y-120.142
X128.056Y-125.222
X130.556Y-125.222
X128.524Y-93.726
X136.144Y-93.726
X153.924Y-112.776
X161.544Y-112.776
X153.924Y-94.488
X161.544Y-94.488
X143.804Y-88.9
X146.304Y-88.9
X128.524Y-108.712
X136.144Y-108.712
X128.524Y-98.044
X136.144Y-98.044
X162.56Y-123.698
X165.06Y-123.698
X141.224Y-83.058
X148.844Y-83.058
X123.444Y-83.058
X123.444Y-85.558
X128.524Y-105.664
X136.144Y-105.664
X153.924Y-97.028
X161.544Y-97.028
X146.344Y-80.264
X148.844Y-80.264
X135.382Y-123.19
X143.002Y-123.19
X128.524Y-83.058
X128.524Y-90.678
X154.432Y-99.568
X154.432Y-107.188
T4
X115.57Y-112.268
X118.11Y-112.268
X115.57Y-105.918
X118.11Y-105.918
X135.382Y-127.254
X143.002Y-127.254
X115.57Y-102.616
X118.11Y-102.616
X115.57Y-108.966
X118.11Y-108.966
T5
X170.688Y-76.708
X170.688Y-79.248
X170.688Y-81.788
X170.688Y-84.328
X170.688Y-86.868
X170.688Y-89.408
X157.226Y-76.708
X159.766Y-76.708
X170.688Y-97.028
X170.688Y-99.568
X170.688Y-102.108
X170.688Y-104.648
X170.688Y-107.188
X155.956Y-128.27
X158.496Y-128.27
X128.778Y-76.708
X157.226Y-80.518
X159.766Y-80.518
X136.144Y-76.708
X138.684Y-76.708
X141.224Y-76.708
X116.332Y-93.472
X116.332Y-96.012
X116.332Y-98.552
X122.936Y-103.378
X122.936Y-105.918
X122.936Y-108.458
X122.936Y-110.998
X128.016Y-128.27
X130.556Y-128.27
X116.586Y-118.364
X116.586Y-120.904
X116.586Y-123.444
X116.586Y-125.984
X170.688Y-114.808
X170.688Y-117.348
X170.688Y-119.888
X170.688Y-122.428
X170.688Y-124.968
X116.332Y-83.058
X116.332Y-85.598
T0
M30
